<?xml version="1.0" encoding="utf-8"?>
<!-- Generator: Adobe Illustrator 24.1.0, SVG Export Plug-In . SVG Version: 6.00 Build 0)  -->
<svg version="1.1" id="Layer_1" xmlns="http://www.w3.org/2000/svg" xmlns:xlink="http://www.w3.org/1999/xlink" x="0px" y="0px"
	 viewBox="0 0 495.6 78" style="enable-background:new 0 0 495.6 78;" xml:space="preserve">
<style type="text/css">
	.st0{fill:#7D848A;}
	.st1{fill:#FFFFFF;}
	.st2{fill:#00ADEE;}
	.st3{fill:#C9DA2A;}
</style>
<path class="st0" d="M6.1,43.2c0,0,62.4-65.8,84-14.9c-4.6-2.7-23.9-23.2-78.8,30.1L6.1,43.2z"/>
<path class="st1" d="M0,23.2l4.6,14.2c0,0,24.1-39.3,63.5-30.1C61.2,0.7,30.1-10.7,0,23.2"/>
<path class="st0" d="M129.1,34.8c0,0-62.4,65.8-84,14.9c4.6,2.7,23.9,23.2,78.8-30.1L129.1,34.8z"/>
<path class="st1" d="M135.2,54.8l-4.6-14.2c0,0-24.1,39.3-63.5,30.1C73.9,77.3,105.1,88.7,135.2,54.8"/>
<path class="st1" d="M180.7,18.9l1-0.2c2.2-0.4,3.7,0.2,4.5,1.7c0.7,1.3,1,3.4,0.8,6.6v21l-21.2-35.4h-14v6.3l1-0.1
	c1.9-0.2,3.3,0.3,4,1.5c0.6,1,0.8,2.7,0.7,5.1v26.7c0.2,3.1-0.1,5.3-0.8,6.6c-0.8,1.3-2.1,1.8-4.1,1.5l-1-0.2v6.4h17V60l-0.9,0.1
	c-2.2,0.2-3.8-0.4-4.6-1.9c-0.7-1.3-1-3.4-0.8-6.3V27.6l21.9,39.1h7.6l0-40c-0.2-3.1,0.1-5.3,0.8-6.6c0.8-1.4,2.1-1.9,4.1-1.5l1,0.2
	v-6.4h-17L180.7,18.9L180.7,18.9z"/>
<path class="st1" d="M232.8,18.5l1-0.2c2.1-0.4,3.6,0.1,4.4,1.5c0.9,1.5,1.2,4.2,0.9,8.3v16c-0.1,10.5-3.4,15.7-10,15.7
	c-6.7,0-10-4.6-10-14.1V24.5c-0.1-2.1,0.1-3.6,0.6-4.6c0.6-1.1,1.8-1.7,3.4-1.5l0.9,0.1v-6.3h-20.4v6.3l0.9-0.1
	c1.7-0.1,2.9,0.4,3.5,1.6c0.6,1,0.8,2.5,0.8,4.7v22.6c0,13.2,5.9,19.9,17.7,19.9c11.4-0.3,17.2-8,17.2-23V28c-0.2-4,0.1-6.9,1.1-8.4
	c0.8-1.3,2.1-1.7,3.8-1.3l1,0.2v-6.4h-17L232.8,18.5L232.8,18.5z"/>
<path class="st1" d="M275,12.7h-18.8V19l1-0.1c1.6-0.2,2.8,0.2,3.4,1.3c0.5,0.9,0.7,2.4,0.6,4.6v30.1c0.1,1.8-0.2,3-0.6,3.9
	c-0.7,1.2-1.9,1.7-3.6,1.5l-0.9-0.1v6.3h21.1v-6.3l-1,0.1c-2,0.2-3.4-0.2-4.1-1.5c-0.5-0.9-0.7-2.3-0.6-4.4v-8.6h2.7
	c8.4,0,13.8-2.4,16.7-7.4c1.5-2.6,2.2-5.9,2.1-9.7c0.1-3.7-0.6-6.9-2-9.3C288.2,14.7,283,12.6,275,12.7 M282.1,28.7
	c0,2.6,0,10.6-9.1,10.6h-1.6V18.9h1.8C282.1,18.9,282.1,26.3,282.1,28.7"/>
<path class="st1" d="M336,57.4c-0.4-1-1-2.6-1.8-4.9c-0.5-1.3-0.8-2.2-1.2-2.9c-1.5-4.4-3.6-7.5-6.3-9.3c5.8-2.2,8.7-7,8.7-14.3
	c0-2.6-0.5-4.9-1.5-6.8c-2.5-4.4-7.8-6.5-16.4-6.5h-18.8v6.3l1-0.1c1.8-0.3,3.2,0.2,3.8,1.4c0.5,0.9,0.6,2.3,0.5,4.5V55
	c0.1,1.9-0.1,3.2-0.6,4c-0.6,1.1-1.9,1.5-3.7,1.3l-1-0.1v6.3h20.8v-6.3l-1,0.1c-1.9,0.2-3.3-0.2-3.9-1.4c-0.5-0.8-0.7-2.1-0.5-4.1
	V43.1h1.4c2.6-0.2,4.5,1.3,5.5,4.7c1.5,4.2,3.4,10.2,5.6,17.8l0.2,0.8h13.7v-6.2h-0.9C338.1,60.3,336.9,59.4,336,57.4 M314.1,18.9
	h1.9c3.8-0.2,6.3,0.9,7.6,3.1c0.7,1.2,1,2.9,1,5c0,2.4-0.2,9.5-8.9,9.8h-1.6V18.9z"/>
<path class="st1" d="M444.9,38.2c4.4-2.3,6.7-6.4,6.8-12.1c0.1-2.8-0.3-5.1-1.3-7.1c-2.4-4.4-7.8-6.4-16.6-6.3h-19.3V19l0.9-0.1
	c2-0.1,3.3,0.4,3.9,1.5c0.4,0.7,0.5,1.7,0.4,3.2l0,32.2c0.1,1.3,0,2.3-0.4,3c-0.6,1.1-1.9,1.6-3.9,1.5l-0.9-0.1v6.3h18.8
	c9.2,0,15-2.3,17.8-7.2c1.2-2.1,1.8-4.7,1.7-7.7C452.8,44.8,450.2,40.3,444.9,38.2 M429.9,35.4V18.9h3c8.2,0,8.2,5.6,8.2,7.4
	c0,2,0,8.3-8.4,9L429.9,35.4L429.9,35.4z M442.2,51.7c0,2.1,0,8.6-9.8,8.6h-2.5V41.6h2.7C442.2,41.6,442.2,49.2,442.2,51.7"/>
<path class="st1" d="M491.6,45.2l-0.3,1.4c-1.8,9.3-5.1,13.6-9.8,13.4h-6.4v-18h4.3c4.4,0,5.2,3.5,5.5,6.1l0.1,1.3h4.1v-21h-4.1
	l-0.1,1.3c-0.2,2.5-1.1,5.7-5.5,5.7h-4.3V19.3h6.4c4.8-0.2,7.7,3.5,9.1,11.4l0.2,1.4l4.3-1.9l-1.6-17.5h-33.9V19l1-0.1
	c1.8-0.2,3,0.2,3.6,1.4c0.5,0.9,0.7,2.4,0.6,4.5v29.8c0.1,1.9-0.2,3.3-0.7,4.2c-0.7,1.2-1.8,1.7-3.6,1.5l-0.9-0.1v6.3h34.6l1.3-19.5
	L491.6,45.2z"/>
<g>
	<path class="st1" d="M381,20.5c0.1-0.1,0.2-0.2,0.1-0.4s-0.3-0.4-0.4-0.4c-0.3,0-0.5,0-0.8,0.1c0,0-0.1,0-0.1,0s0,0-0.1,0
		c-0.2-0.1-0.3,0-0.4,0.1c-0.2-0.3-0.3-0.4-0.6-0.2c-0.1,0-0.1,0.1-0.2,0.2c0,0-0.1,0.1-0.1,0.2c0,0.1,0.1,0.1,0.2,0.1
		c0.1,0,0.2-0.1,0.3,0c0,0.1,0,0.1-0.1,0.2c0,0.1-0.1,0.1,0,0.2c0,0,0.1,0.1,0,0.2c0,0.1,0,0.1,0,0.2c0,0,0.1,0,0.1,0
		c0.2,0,0.5,0,0.7,0.2c0.1,0,0.2,0,0.2-0.1c0.2-0.2,0.4-0.3,0.7-0.3C380.9,20.6,381,20.5,381,20.5"/>
	<path class="st1" d="M379.9,36.3C379.9,36.3,379.8,36.4,379.9,36.3c0,0.1,0,0.1,0,0.1C379.9,36.4,379.9,36.4,379.9,36.3
		C379.9,36.3,379.9,36.3,379.9,36.3"/>
	<path class="st1" d="M380,36.1C380,36.2,380,36.2,380,36.1c0.1,0.1,0.1,0,0.1,0C380.1,36.1,380,36.1,380,36.1
		C380,36.1,380,36.1,380,36.1"/>
	<path class="st1" d="M365.8,16C365.8,16,365.8,16,365.8,16c0.1,0,0.2-0.1,0.2-0.2c0-0.1,0-0.2-0.1-0.2c-0.1-0.1-0.3-0.1-0.4-0.1
		c0,0-0.1,0.1-0.1,0.1s0,0.1,0,0.2C365.5,16,365.6,16,365.8,16"/>
	<path class="st1" d="M366.8,15.6c0.1,0,0.2,0,0.3-0.1c0.3-0.2,0.6-0.3,0.9-0.4c0,0,0.1,0,0.1-0.1c0,0,0.1-0.1,0.1-0.2
		c0-0.1,0-0.1-0.1-0.2c-0.1-0.1-0.2-0.2-0.3-0.2c-0.1-0.1-0.3-0.1-0.5,0c-0.2,0.2-0.5,0.3-0.7,0.5c-0.1,0.1-0.2,0.2-0.1,0.3
		C366.4,15.5,366.5,15.6,366.8,15.6"/>
	<path class="st1" d="M364.2,42.5C364.2,42.5,364.1,42.6,364.2,42.5c0,0.1,0,0.1,0,0.1C364.2,42.6,364.3,42.6,364.2,42.5
		C364.2,42.6,364.2,42.5,364.2,42.5"/>
	<path class="st1" d="M363.8,42.3C363.8,42.2,363.8,42.2,363.8,42.3c-0.1-0.1-0.1,0-0.1,0C363.7,42.3,363.7,42.4,363.8,42.3
		C363.8,42.4,363.8,42.3,363.8,42.3"/>
	<path class="st1" d="M354.4,47.4C354.4,47.4,354.4,47.5,354.4,47.4C354.4,47.5,354.4,47.5,354.4,47.4
		C354.5,47.5,354.5,47.5,354.4,47.4C354.4,47.5,354.4,47.4,354.4,47.4"/>
	<path class="st1" d="M362.8,18c0,0.1-0.1,0.2-0.2,0.2c0,0-0.1,0-0.1,0c-0.1,0-0.2,0.3-0.2,0.4c0.1,0.2,0.2,0.2,0.3,0.3
		c0.2,0,0.6-0.3,0.7-0.4c0.1-0.1,0.2-0.2,0.2-0.4c0-0.1,0.1-0.2,0.2-0.3c0,0,0.1-0.1,0.1-0.2c0-0.1,0-0.1-0.1-0.1c0,0-0.1,0-0.1,0
		c-0.2,0.1-0.3,0.1-0.5,0.1C363,17.7,362.9,17.8,362.8,18"/>
	<path class="st1" d="M365.6,16.5c-0.1,0.1-0.1,0.2-0.2,0.2c0,0-0.1,0.1-0.1,0.2c0,0.1,0,0.1,0.1,0.1c0.1,0,0.1,0,0.2,0
		c0.2,0,0.5,0,0.7,0c0.2,0,0.4,0.1,0.6,0c0.2-0.1,0.5-0.1,0.7-0.4c0.2-0.2,0.2-0.3,0.1-0.5c-0.1,0-0.3,0.1-0.4,0
		c-0.1,0.1-0.1,0.1-0.2,0.1c-0.3,0-0.5,0.1-0.8,0.1c-0.1,0-0.1,0-0.2-0.1C366.1,16.1,365.8,16.2,365.6,16.5"/>
	<path class="st1" d="M363.4,17.1c0,0,0.1,0,0.1,0c0.1,0,0.1,0,0.2-0.1c0-0.1,0-0.2,0-0.3c0,0-0.1,0-0.1,0c-0.1,0-0.2,0.1-0.3,0.2
		C363.2,16.9,363.3,17,363.4,17.1"/>
	<path class="st1" d="M365,16.5c0.1,0.1,0.2,0.1,0.3,0.1c0.1,0,0.2-0.1,0.3-0.1c0.1-0.1,0.1-0.2,0-0.2c-0.1-0.1-0.3-0.1-0.5,0
		C365,16.3,365,16.4,365,16.5"/>
	<path class="st1" d="M367.4,16.2C367.4,16.2,367.4,16.2,367.4,16.2L367.4,16.2L367.4,16.2L367.4,16.2z"/>
	<path class="st1" d="M367.8,16.1C367.8,16.1,367.8,16.1,367.8,16.1c0.1,0,0.2,0,0.3-0.1c0.2-0.1,0.4,0,0.5-0.4
		c0-0.1,0.1-0.1,0.1-0.1c0.4-0.2,0.9-0.4,1.3-0.7c0,0,0.1,0,0.1-0.1c0.4-0.1,0.8-0.3,1.1-0.5c0.2-0.1,0.5-0.3,0.8-0.4
		c0.3-0.1,0.6-0.3,0.9-0.4c0,0,0.1,0,0.1-0.1s-0.1-0.1-0.1-0.1c-0.4-0.1-0.7-0.1-1.1,0c-0.2,0.1-0.3,0.1-0.5,0.1
		c-0.4,0.1-0.7-0.1-1,0c-0.4,0-0.7,0.1-1.1,0.3c-0.4,0.1-0.8,0.4-1.1,0.4c-0.1,0-0.1,0-0.2,0.1c-0.1,0.1-0.1,0.1,0,0.2
		c0.1,0.1,0.2,0.2,0.3,0.2c0.1,0,0.1,0,0.2,0.1c0,0.1-0.1,0.1-0.1,0.2c0,0.1,0,0.2-0.1,0.2c-0.2,0.2-0.4,0.4-0.7,0.4
		c-0.1,0-0.2,0-0.3,0.1c-0.2,0.2-0.3,0.2-0.5,0.3c-0.1,0-0.3,0.1-0.4,0.3c0,0-0.1,0.1,0,0.1c0,0,0,0.1,0.1,0c0,0,0.1,0,0.1,0
		c0.2,0,0.5-0.1,0.8-0.1C367.5,16.1,367.6,16,367.8,16.1"/>
	<path class="st1" d="M367.8,16.1L367.8,16.1L367.8,16.1z"/>
	<path class="st1" d="M363.7,42.6C363.7,42.6,363.8,42.6,363.7,42.6c0-0.1,0-0.1,0-0.1C363.7,42.5,363.6,42.5,363.7,42.6
		C363.6,42.6,363.7,42.6,363.7,42.6"/>
	<path class="st1" d="M364.5,15.9c0.1,0.1,0.3,0.1,0.4,0c0.1,0,0.1-0.1,0.2-0.1c0.1-0.1,0.1-0.2,0-0.2c-0.2-0.1-0.3-0.1-0.5-0.1
		c-0.2,0-0.3,0.1-0.3,0.2C364.3,15.9,364.4,15.9,364.5,15.9"/>
	<path class="st1" d="M362.3,16.7c0.1,0,0.2,0,0.3,0c0.1,0,0.2-0.1,0.3-0.2c0,0,0.1-0.1,0.1-0.1c0-0.1,0-0.1-0.1-0.1
		c-0.1,0-0.1,0-0.1,0c-0.2,0-0.3,0.1-0.4,0.2C362.3,16.5,362.3,16.5,362.3,16.7C362.3,16.7,362.3,16.7,362.3,16.7"/>
	<path class="st1" d="M364,17.2c0.2,0,0.5-0.3,0.7-0.5c0.1-0.1,0.1-0.2,0-0.2c-0.2,0-0.4,0-0.7,0.2c-0.2,0.1-0.3,0.3-0.3,0.4
		C363.7,17.2,363.8,17.2,364,17.2"/>
	<path class="st1" d="M363.1,41.1C363.2,41.1,363.2,41.1,363.1,41.1C363.2,41,363.2,41,363.1,41.1C363.2,41,363.1,41,363.1,41.1
		C363.1,41,363.1,41,363.1,41.1"/>
	<path class="st1" d="M358.3,38.5C358.3,38.5,358.3,38.4,358.3,38.5c0-0.2,0-0.3-0.1-0.3c-0.1-0.1-0.1-0.1-0.2,0
		C358,38.3,358.1,38.5,358.3,38.5C358.3,38.6,358.3,38.5,358.3,38.5"/>
	<path class="st1" d="M358.5,38.1C358.5,38.1,358.5,38.1,358.5,38.1C358.5,38,358.5,38,358.5,38.1C358.4,38,358.4,38.1,358.5,38.1
		C358.4,38.1,358.4,38.2,358.5,38.1"/>
	<path class="st1" d="M358.8,38.1C358.8,38.1,358.8,38.1,358.8,38.1c0-0.1,0-0.2-0.1-0.2c0,0,0,0,0,0c0,0.1,0,0.1,0.1,0.1
		C358.7,38.1,358.7,38.1,358.8,38.1"/>
	<path class="st1" d="M359.3,40.8c0.1,0,0.3,0,0.5,0.1c0.2,0,0.4,0.1,0.6-0.1c0,0,0.1,0,0.1,0c0.1,0,0.1,0,0.2,0
		c0.1-0.1,0.2-0.1,0.3,0c0.1,0,0.2,0,0.2-0.1c0-0.1,0-0.2-0.1-0.2c-0.2-0.1-0.5-0.1-0.7-0.3c0,0-0.1,0-0.1,0c-0.2,0.1-0.4,0-0.6,0
		c0,0-0.1,0-0.1,0c0,0.1,0,0.1,0,0.2c0.1,0.1,0.1,0.1,0.1,0.2c-0.1,0-0.3,0-0.4,0.1c-0.1,0-0.1,0-0.1,0.1
		C359.2,40.7,359.3,40.7,359.3,40.8"/>
	<path class="st1" d="M357.8,39.1c0,0-0.1,0-0.1-0.1c-0.3-0.1-0.5-0.2-0.8-0.2c-0.2,0-0.4,0.1-0.6,0.2c-0.2,0.1-0.3,0.2-0.4,0.4
		c0,0,0,0.1,0,0.1c0,0,0.1,0,0.1,0c0.1-0.1,0.3-0.1,0.5-0.2s0.3-0.1,0.4,0c0.1,0.1,0.2,0.1,0.3,0.1c0.3,0,0.5,0.2,0.7,0.2
		c0,0,0,0,0,0.1c0,0.1,0.1,0.1,0.2,0.2c0.1,0,0.2,0.1,0.2,0.2c0,0.2,0.1,0.2,0.2,0.2c0.2-0.1,0.3,0,0.5,0c0.2,0.1,0.3,0.1,0.5-0.1
		c0.1-0.1,0.1-0.2,0-0.2c-0.1-0.1-0.2-0.1-0.3-0.2c-0.2-0.1-0.5-0.2-0.7-0.4C358.1,39.2,358,39,357.8,39.1"/>
	<path class="st1" d="M362,40.5c-0.1,0-0.1,0-0.2,0c-0.1,0-0.2,0-0.2,0.2c0,0.1,0.1,0.2,0.2,0.2c0.1,0,0.2,0,0.3-0.1
		c0,0,0.1-0.1,0-0.1C362.1,40.6,362.1,40.5,362,40.5"/>
	<path class="st1" d="M360.9,17.4c-0.1,0.1-0.3,0.2-0.4,0.3c0,0-0.1,0.1-0.1,0.2c0,0.1,0,0.1,0.1,0.1c0.1,0,0.2-0.1,0.3,0
		c0.3,0,0.5,0,0.8-0.1c0.3-0.1,0.6-0.2,0.9-0.2c0.1,0,0.2-0.1,0.3-0.2c0.1-0.1,0.2-0.2,0.2-0.4c0-0.1-0.1,0-0.2,0c0,0-0.1,0-0.1,0
		c0-0.2,0-0.1-0.1-0.1c-0.1,0-0.2,0.1-0.3,0.3c-0.1,0.1-0.2,0.2-0.2,0.2c-0.1-0.1-0.3-0.1-0.4-0.2c0,0-0.1-0.1-0.2,0c0,0-0.1,0,0,0
		c0.1-0.2,0-0.2-0.1-0.2c-0.2,0-0.3,0.1-0.5,0.1c-0.4,0.2-0.7,0.5-1,0.8c0.2,0,0.4,0,0.6-0.2C360.5,17.5,360.7,17.4,360.9,17.4"/>
	<path class="st1" d="M387.2,46.3c0.1,0,0.1-0.1,0.1-0.1c0,0,0-0.1,0-0.1C387.2,46.1,387.2,46.2,387.2,46.3
		C387.2,46.2,387.2,46.3,387.2,46.3"/>
	<path class="st1" d="M372.5,49.4c-0.1,0-0.1-0.1-0.2-0.1c-0.2,0-0.3-0.1-0.4-0.2c-0.1-0.1-0.2-0.2-0.3-0.3
		c-0.2-0.1-0.4-0.3-0.7-0.2c-0.1,0-0.2,0-0.4,0c-0.1,0-0.2-0.1-0.3-0.1c-0.1,0-0.3-0.1-0.5-0.1c-0.1,0-0.1,0-0.1-0.1
		c-0.1-0.2-0.2-0.2-0.4-0.3c-0.1,0-0.3-0.1-0.4-0.2c-0.1-0.1-0.3-0.1-0.4-0.1c0,0-0.1,0-0.1,0c0-0.2-0.1-0.2-0.3-0.2
		c-0.2,0-0.4-0.2-0.4-0.4c0-0.1,0-0.2-0.1-0.3c-0.1-0.1-0.2-0.2-0.2-0.4c0-0.1-0.1-0.2-0.1-0.4c-0.2-0.2-0.5-0.4-0.7-0.6
		c-0.3-0.1-0.6-0.2-1-0.2c-0.2,0-0.4-0.1-0.6-0.2c-0.1-0.1-0.2-0.2-0.3-0.3c-0.1-0.2-0.2-0.3-0.4-0.3c-0.1,0-0.2-0.1-0.3-0.1
		c0,0-0.1,0-0.1-0.1c0-0.2-0.1-0.2-0.2-0.3c0.1,0,0.1,0,0.1-0.1c0-0.2,0-0.2-0.1-0.3c-0.1,0-0.2,0-0.3,0.1c0,0.1,0,0.1-0.1,0.2
		c-0.1-0.1-0.1-0.1,0-0.2c0-0.1,0-0.2-0.1-0.1c-0.1,0-0.3,0-0.4,0c-0.1,0-0.1,0-0.2,0c-0.2,0.2-0.4,0.1-0.6,0
		c-0.1,0-0.1-0.1-0.2-0.1c-0.1,0-0.2,0-0.4,0c-0.1,0-0.2,0-0.3-0.1c0-0.1-0.1-0.1-0.2-0.1c-0.1,0-0.2,0-0.2-0.1c0-0.1-0.1-0.1-0.1,0
		c0,0.2-0.3,0.2-0.4,0.3c0,0-0.1,0-0.1,0c0,0,0-0.1,0-0.1c0,0,0.1-0.1,0.1-0.1c0.1-0.1,0-0.2,0-0.2c-0.1,0-0.3,0-0.4,0.1
		c-0.1,0.2-0.3,0.3-0.5,0.3c-0.2,0-0.4,0.1-0.5,0.3c-0.1,0.1-0.1,0.1-0.1,0.2c0,0.1-0.1,0.2-0.1,0.3c-0.1,0.1-0.2,0.1-0.2,0.2
		c-0.1-0.1-0.2-0.2-0.3-0.2c-0.2-0.1-0.4-0.2-0.7-0.1c-0.1,0-0.1,0-0.2,0.1c-0.2,0.1-0.3,0-0.5,0c-0.1,0-0.1-0.1-0.2-0.2
		c-0.3-0.2-0.4-0.5-0.3-0.8c0-0.1,0-0.2,0-0.4c0-0.1,0-0.3,0.1-0.4c0.1-0.1,0-0.3,0-0.4c0-0.1-0.1-0.1-0.2-0.1c0,0,0,0-0.1,0
		c-0.1-0.1-0.2-0.1-0.3-0.1c-0.2,0-0.4,0-0.6,0c-0.2,0-0.4,0.1-0.6,0c0.1-0.1,0.2-0.2,0.2-0.3c0-0.2,0.1-0.3,0.1-0.4
		c0.1-0.2,0.2-0.5,0.2-0.7c0-0.1,0-0.2,0.1-0.3c0.1-0.1,0.1-0.2,0-0.2c0-0.1-0.1-0.1-0.2-0.1c-0.3,0-0.6,0.1-0.9,0.2
		c-0.1,0-0.1,0.1-0.1,0.2c0,0.2-0.1,0.3-0.1,0.5c0,0.2-0.2,0.3-0.4,0.3c-0.2,0-0.3,0-0.5,0c-0.1,0-0.2,0.1-0.3,0.1
		c-0.1,0-0.2-0.2-0.3-0.2c-0.2,0-0.3-0.1-0.3-0.3c-0.1-0.2-0.2-0.5-0.3-0.8c-0.1-0.5,0-0.9,0.2-1.3c0.1-0.2,0.1-0.3,0.1-0.5
		c0-0.1,0-0.3,0.1-0.4c0.1-0.1,0.3-0.2,0.4-0.3c0.3-0.2,0.5-0.3,0.8-0.4c0.1-0.1,0.3-0.1,0.4,0c0.2,0.1,0.4,0,0.6,0.1
		c0.1,0,0.2,0,0.3,0c0.2,0,0.2,0,0.2-0.2c0,0,0,0,0,0c0-0.1,0-0.1,0.1-0.1c0.2,0,0.5-0.1,0.7-0.2c0.2,0,0.3,0,0.4,0.1
		c0.1,0.2,0.1,0.2,0.3,0.1c0.1,0,0.1-0.1,0.2,0c0.1,0,0.2,0.3,0.2,0.4c0,0.2,0,0.4,0,0.5c0.1,0.3,0.2,0.5,0.4,0.7
		c0,0.1,0.1,0.1,0.2,0c0.1,0,0.1-0.1,0.2-0.1c0.2-0.2,0.2-0.5,0.2-0.8c0-0.2-0.1-0.5-0.2-0.7c-0.1-0.5,0.1-0.8,0.5-1.1
		c0.2-0.2,0.4-0.3,0.6-0.5c0,0,0.1-0.1,0.2-0.1c0.1,0,0.2-0.1,0.2-0.2c0.1-0.1,0.2-0.2,0.4-0.2c0.1,0,0.3-0.1,0.3-0.3
		c0,0,0-0.1,0.1-0.1c0.2-0.2,0.3-0.4,0.3-0.7c0-0.1,0-0.2,0-0.3c0,0,0-0.1,0.1-0.1c0.2,0,0.2-0.2,0.4-0.4c0-0.1,0.1-0.1,0.2-0.2
		c0.1-0.1,0.3-0.3,0.4-0.4c0.1-0.1,0.2-0.2,0.3-0.3c0.2-0.1,0.4-0.2,0.6-0.3c0.1,0,0.3-0.1,0.4-0.2c0.1,0,0.1-0.1,0.1-0.2
		c0-0.1,0-0.2,0.1-0.3c0.2-0.2,0.3-0.4,0.5-0.4c0,0,0.1,0,0.1,0c0.1-0.2,0.2-0.2,0.4-0.2c0,0,0.1,0,0.1-0.1c0.3-0.2,0.6-0.3,0.9-0.5
		c-0.1,0.1-0.2,0.2-0.3,0.2c-0.1,0.1-0.1,0.2-0.2,0.2c-0.1,0.1-0.1,0.3-0.1,0.4c0.1,0.1,0.2,0,0.3-0.1c0.1-0.1,0.1-0.1,0.2-0.2
		c0.1-0.1,0.2-0.2,0.4-0.2c0.1,0,0.1,0,0.2-0.1c0.2-0.1,0.4-0.2,0.6-0.3c0.1,0,0.1-0.1,0-0.2c0,0-0.1-0.1-0.1-0.1
		c-0.1,0-0.2-0.1-0.3-0.1c-0.1,0-0.2-0.1-0.3-0.2c-0.1-0.2,0-0.6,0.2-0.8c0.1-0.1,0.2-0.1,0.1-0.2c0-0.1-0.1-0.2-0.2-0.2
		c-0.1,0-0.2,0-0.3,0c-0.3,0.1-0.5,0.1-0.8,0.3c0,0-0.1,0.1-0.2,0.1c0.1-0.1,0.3-0.2,0.4-0.3c0.1,0,0.2-0.1,0.3-0.2
		c0.1-0.1,0.2-0.1,0.3-0.1c0.3,0,0.6,0,0.8-0.1c0.1,0,0.2,0,0.3,0c0.2,0,0.5,0.1,0.7-0.1c0.2-0.1,0.4-0.2,0.5-0.4
		c0.1-0.1,0.3-0.2,0.5-0.2c-0.2,0.2-0.3,0.4-0.5,0.6c-0.2,0.3-0.4,0.6-0.6,0.8c-0.1,0-0.1,0.1-0.2,0.2c-0.1,0.1,0,0.2,0,0.2
		c0.2,0,0.3,0.1,0.5,0c0.1-0.1,0.3,0,0.5-0.1c0,0,0.1,0,0.1,0c0.1,0.2,0.3,0.1,0.4,0.2c0.2,0.1,0.3,0.1,0.5-0.2c0-0.1,0.1-0.2,0-0.2
		c0,0-0.1,0-0.1-0.1c0.1-0.1,0-0.3,0.1-0.5c0-0.1,0.1-0.1,0.1-0.2c0-0.1-0.1-0.1-0.2-0.1c-0.1,0-0.2,0.1-0.2,0.1c-0.1,0-0.1,0-0.1,0
		c0-0.1-0.1-0.2,0-0.3c0.1-0.1,0.1-0.2,0.2-0.3c0.1-0.1,0-0.3,0.1-0.3c0.2-0.2,0.2-0.4,0.2-0.7c0-0.1,0-0.2-0.1-0.3
		c-0.1-0.1-0.2-0.1-0.1-0.3c0-0.1,0-0.1-0.1-0.1c-0.1,0-0.2-0.1-0.2-0.1c-0.3-0.1-0.4-0.4-0.3-0.8c0-0.1,0-0.2,0-0.3
		c0-0.4-0.1-0.7-0.2-1c0-0.2,0-0.2-0.2-0.1c-0.2,0.2-0.4,0.4-0.7,0.6c-0.1,0.1-0.3,0.1-0.4,0.1c-0.1,0-0.2-0.2-0.1-0.4
		c0-0.1,0.1-0.2,0.1-0.3c0.1-0.1,0-0.2,0-0.3c0,0-0.1-0.1-0.1-0.1c-0.1,0-0.1-0.1-0.2-0.2c-0.1-0.1-0.2-0.2-0.3-0.3
		c-0.1-0.1-0.1,0.1-0.2,0.1c0,0,0,0-0.1,0c-0.1,0-0.2,0-0.4-0.1c-0.2-0.1-0.4,0-0.5,0.2c-0.1,0.2-0.2,0.5-0.4,0.7c0,0,0,0.1,0,0.1
		c0,0.3-0.1,0.5-0.4,0.6c0,0-0.1,0.1-0.1,0.1c-0.2,0.1-0.2,0.2-0.1,0.4c0.1,0.1,0.1,0.3,0,0.4c-0.1,0.2-0.3,0.4-0.5,0.6
		c-0.2,0.2-0.5,0.3-0.8,0.5c-0.1,0-0.2,0.1-0.2,0.2c0,0.3-0.2,0.5-0.2,0.8c0,0.2-0.1,0.3-0.3,0.4c-0.1,0.1-0.2,0.1-0.3,0.2
		c0,0-0.1,0-0.1,0c-0.1-0.1-0.1-0.5,0-0.7c0.1-0.2,0.2-0.5,0.4-0.6c0.1-0.1,0.1-0.2,0-0.2c-0.1,0-0.3-0.1-0.5,0c-0.1,0-0.2,0-0.3,0
		s-0.2-0.1-0.3-0.2c-0.1,0-0.1-0.1-0.1-0.1c-0.2-0.2-0.4-0.4-0.7-0.2c0,0-0.1,0.1-0.1,0c0-0.1,0.1-0.3,0.1-0.4
		c0.1-0.2,0-0.2-0.1-0.2c0,0-0.1,0-0.1,0c0,0,0-0.1,0.1-0.1c0.3-0.5,0.6-0.8,1-1c0.3-0.2,0.6-0.5,1-0.5c0.1,0,0.1-0.1,0.2-0.1
		c0.2-0.2,0.3-0.4,0.5-0.4c0.3-0.1,0.5-0.3,0.8-0.5c0.1,0,0.1-0.1,0.2-0.1c0,0.2-0.1,0.3-0.2,0.4c-0.2,0.2-0.2,0.2,0,0.3
		c0,0,0,0,0,0c0.1,0.2,0.2,0.1,0.3,0s0.2-0.2,0.4-0.3c0.1-0.1,0.2-0.1,0.3,0c0.1,0.1,0.1,0.1,0.2,0.1c0.1,0,0.1-0.1,0.2-0.2
		c0-0.1,0-0.1,0-0.2c0,0-0.1-0.1-0.1-0.1c0-0.2-0.1-0.4-0.2-0.6c0.1-0.1,0.3-0.1,0.4-0.1c0.1,0.1,0.2,0,0.2,0
		c0.2-0.2,0.4-0.4,0.6-0.6c0,0,0-0.1,0-0.1c0-0.2,0.2-0.3,0.3-0.4c0.2-0.2,0.2-0.3,0.1-0.5c0,0,0,0,0,0c0.1,0,0.3,0,0.4,0
		c0,0,0.1,0,0.1,0c0.1,0,0.3,0,0.5-0.1c0,0,0.1,0,0.1,0c0.1,0.1,0.2,0.1,0.2,0.3c0,0.1,0.1,0.2,0.2,0.2c0.2,0.1,0.2,0.2,0,0.5
		c-0.1,0.1-0.2,0.2-0.4,0.3c-0.1,0.1-0.2,0.1-0.3,0.3c0,0.1-0.1,0.1-0.1,0.1c-0.2,0.1-0.4,0.1-0.5,0c-0.2-0.1-0.5,0.1-0.6,0.4
		c0,0.1,0,0.2,0.1,0.2c0.3-0.1,0.5,0.1,0.8-0.1c0.1-0.1,0.2,0,0.2,0.1c0,0.1,0.1,0.2,0.1,0.3c0,0.1,0,0.1,0.1,0.2
		c0.3,0.2,0.6,0.3,0.9,0.4c0,0,0,0,0,0c0.1,0,0.2-0.1,0.1-0.2c0-0.1-0.1-0.2-0.1-0.4c0.1,0,0.2,0,0.2,0.1c0.1,0,0.1,0,0.2,0
		c0.4-0.2,0.5-0.7,0.2-1.1c0,0-0.1-0.1-0.1-0.1c0,0-0.1-0.1,0-0.2c0.1,0,0.1,0,0.2,0c0.1,0,0.2,0,0.3,0.2c0,0.1,0.1,0.2,0.1,0.3
		c0.1,0.2,0.2,0.2,0.3,0c0.1-0.1,0.3-0.3,0.4-0.4c0.1-0.1,0.2-0.3,0.1-0.5c0-0.2-0.1-0.3-0.3-0.4c-0.1,0-0.2-0.1-0.4-0.2
		c-0.1,0-0.1,0-0.1-0.1c0-0.1,0.1-0.1,0.1-0.1c0.1,0,0.1-0.1,0.1-0.2c0-0.2,0-0.4-0.1-0.5c-0.1-0.2-0.3-0.2-0.5-0.3
		c-0.1,0-0.1,0-0.2-0.1c-0.1-0.1-0.2-0.2-0.4-0.3c0.1-0.1,0.2-0.1,0.2-0.2c0-0.1,0-0.1-0.1-0.2c-0.2-0.1-0.4-0.1-0.6,0
		c-0.1,0-0.1,0-0.1,0.1c0,0.2,0,0.3,0.1,0.4c-0.1,0-0.2,0-0.3,0c0.1-0.4,0.1-0.5-0.2-0.5c-0.2,0-0.5,0.2-0.7,0.1
		c-0.1,0-0.3,0-0.4,0.1c-0.1,0-0.2,0-0.3,0.1c-0.3,0.2-0.5,0.5-0.7,0.8c-0.2,0.2-0.1,0.5,0,0.5c0.1,0.1,0.2,0.1,0.3,0.2
		c-0.2,0.4-0.5,0.7-0.8,1c-0.1,0-0.1,0.1-0.2,0.1c0,0-0.1,0-0.1,0c0,0,0-0.1,0-0.1c0-0.1,0.1-0.1,0.1-0.2c0.1-0.1,0.1-0.2,0.1-0.3
		c0-0.1-0.1-0.1-0.2,0c0,0-0.1,0.1-0.2,0.1c0,0,0-0.1,0-0.2c0,0-0.1,0-0.1-0.1c0.2-0.2,0.3-0.6,0.1-0.9c0.1,0,0.1,0,0.2-0.1
		c0.2-0.1,0.4-0.2,0.5-0.2c0.1,0,0.2-0.1,0.3-0.2c0.1-0.1,0.2-0.2,0.3-0.3c0.1,0,0.1-0.1,0.1-0.2c0-0.1-0.1-0.1-0.1-0.1
		c0,0-0.1,0-0.1,0c-0.1,0-0.2,0-0.3,0c0.1-0.1,0.1-0.1,0.2-0.1c0.1-0.1,0.2-0.2,0.2-0.3c0-0.1,0-0.2-0.1-0.2c-0.1,0-0.2,0-0.3,0.1
		c-0.2,0.1-0.2,0.2-0.1,0.3c0,0,0,0,0,0.1c-0.2,0-0.5,0.3-0.7,0.5c-0.1,0.1-0.1,0.2-0.2,0.3c0,0.2-0.1,0.3-0.3,0.4
		c-0.3,0.1-0.5,0.3-0.7,0.6c-0.1,0.2-0.1,0.2,0,0.3c0.1,0.1,0,0.2,0,0.2c-0.1,0.2-0.3,0.3-0.5,0.4c-0.1,0.1-0.1,0-0.2-0.1h0h0
		c-0.1,0.1-0.2,0.1-0.3,0.1c0.1-0.1,0.2-0.1,0.3-0.1l0,0v0c0.1,0,0.3-0.1,0.4-0.2c0.1-0.1,0.1-0.2,0.1-0.2c-0.1-0.2-0.3-0.2-0.5-0.1
		c-0.1,0.1-0.2,0.2-0.3,0.2c-0.1,0-0.1,0.1-0.1,0.2c0,0.1,0.1,0.1,0.1,0.1c0,0,0,0,0,0c-0.2,0.2-0.2,0.2-0.3,0.2
		c-0.3,0-0.5,0.1-0.8,0.2c-0.2,0-0.3,0-0.4-0.2c0.1,0,0.1,0,0.2,0c0.1,0,0.1,0,0.2,0c0.1,0,0.3,0,0.5-0.2s0.2-0.3,0.4-0.3
		c0.1,0,0.1-0.1,0.1-0.2s0-0.2,0-0.2c0,0-0.1,0-0.1-0.1c-0.1-0.1-0.1-0.1,0-0.3c0-0.1,0.1-0.2,0.2-0.3c0.1-0.3,0.1-0.5-0.1-0.5
		c-0.1,0-0.2,0.1-0.3,0.1c-0.1,0.1-0.2,0.3-0.4,0.4c-0.1-0.2-0.1-0.3-0.2-0.2c-0.1,0.1-0.2,0.1-0.4,0.1c0,0-0.1,0-0.2,0
		c-0.2,0.1-0.2,0-0.2-0.1c0-0.3-0.1-0.3-0.4-0.2c-0.1,0-0.2,0.1-0.3,0c-0.1-0.1-0.2-0.1-0.3,0c-0.6,0.5-1.2,1.1-1.8,1.7
		c0.1,0,0.1,0,0.2-0.1c0.2-0.2,0.5-0.3,0.7-0.4c0.1,0,0.2,0,0.1,0.1c0,0.1-0.1,0.3-0.1,0.4c0,0-0.1,0.1-0.1,0.1
		c-0.2,0.1-0.2,0.3-0.1,0.4c0,0,0,0,0.1,0c0.3,0,0.5,0.2,0.8,0c0.1-0.1,0.3-0.1,0.4-0.1c-0.2,0.3-0.2,0.3-0.4,0.3
		c-0.1,0-0.1,0-0.2,0.1c-0.3,0.1-0.6,0.2-0.8,0.2c0,0,0,0,0-0.1c0.2-0.2,0.2-0.2,0.1-0.3c-0.1-0.1-0.2-0.1-0.3,0
		c-0.1,0.1-0.2,0-0.4,0c-0.1-0.1-0.2-0.1-0.4-0.1c-0.1,0-0.1,0-0.2,0c-4.6,5-7.4,11.7-7.4,19c0,0.4,0,0.9,0,1.3
		c0.1,0.1,0.2,0.1,0.3,0.1c0.1,0,0.2,0,0.2,0.1c0.1,0.1,0.3,0.2,0.5,0.2c0.2,0.1,0.5,0.1,0.7,0.2c0.4,0.2,0.7,0.2,1.1,0.1
		c0.1-0.1,0.2,0,0.4,0c0.2,0.1,0.3,0.2,0.4,0.3c0.2,0.2,0.4,0.3,0.7,0.3c0,0,0.1,0,0.1,0.1c0.2,0.2,0.4,0.3,0.7,0.3
		c0.1,0,0.2,0,0.3,0.1c0.1,0.1,0.2,0.2,0.2,0.3c0.1,0.2,0.2,0.2,0.4,0.2c0,0,0.1,0,0.1,0c0,0,0,0,0,0c0,0,0,0,0,0
		c-0.2,0.2-0.1,0.5,0.1,0.6c0,0,0,0,0,0c0.1,0.1,0.4,0.1,0.5,0.3c0.1,0.2,0.3,0.3,0.5,0.3c0.1,0,0.3,0,0.4,0.2
		c0.1,0.1,0.2,0.1,0.3,0.1c0.1,0,0.1-0.1,0-0.2c-0.1-0.2,0.1-0.2,0.1-0.2c0-0.1,0.2,0,0.2,0c0.1,0.1,0.3,0.1,0.2,0.3
		c0,0.1,0,0.1,0.1,0.2c0.1,0.2,0.2,0.3,0.3,0.5c0.1,0.2,0.1,0.5,0,0.8c0,0.2-0.1,0.3-0.2,0.5c-0.1,0-0.1,0.2-0.1,0.2
		c0,0.2-0.1,0.2-0.2,0.2c-0.1,0-0.2,0.1-0.1,0.2c0,0.1,0,0.1,0,0.2c0,0.1-0.1,0.2-0.1,0.3c0,0.2,0,0.5,0.3,0.6c0.1,0,0.1,0.1,0,0.1
		c-0.1,0.1-0.1,0.2-0.2,0.3c-0.1,0.1-0.1,0.2,0.1,0.3c0.1,0.1,0.2,0.2,0.1,0.3c0,0.1,0.1,0.2,0.2,0.2c0.1,0,0.2,0.1,0.2,0.1
		c0.2,0.2,0.4,0.4,0.5,0.6c0.1,0.1,0.2,0.3,0.4,0.4c0.1,0,0.1,0.1,0.2,0.2c0.3,0.3,0.5,0.7,0.8,1c0,0,0,0,0,0c0,0.2,0.2,0.3,0.3,0.4
		c0.2,0.1,0.3,0.3,0.5,0.4c0.2,0.1,0.4,0.2,0.6,0.3c0.3,0.2,0.6,0.4,0.9,0.6c0,0,0.1,0.1,0.1,0.2c0.1,0.2,0.2,0.4,0.3,0.6
		c0.1,0.6,0.4,1.2,0.6,1.7c0,0,0,0.1,0.1,0.1c0.1,0.1,0.1,0.2,0.1,0.3c0.1,0.3,0.1,0.6,0.3,0.9c0,0,0,0.1,0,0.1c0,0.1,0,0.1,0.1,0.2
		c0.2,0.2,0.2,0.4,0.4,0.7c0.1,0.2,0.2,0.4,0.2,0.6c0,0.1,0,0.2,0.1,0.4c0,0.1,0.1,0.2,0,0.2c0,0.1,0,0.1,0.1,0.2
		c0.1,0.2,0.2,0.3,0.3,0.5c0.1,0.2,0.2,0.5,0.4,0.7c0.1,0.1,0.2,0.2,0.3,0.3c0,0,0.1,0,0.1,0.1c0.1,0.1,0.1,0.2,0.2,0.2
		c0.1,0.2,0.2,0.4,0.3,0.6c0,0,0,0,0,0.1c0,0.1,0.1,0.3,0.2,0.4c0.2,0.2,0.4,0.4,0.4,0.6c0,0,0,0.1,0.1,0.1c0.2,0.3,0.6,0.6,0.8,1
		c0.2,0.2,0.3,0.3,0.5,0.4c0.1,0.1,0.2,0.1,0.3,0c0,0,0-0.1,0.1-0.1c0,0,0.1,0,0.1,0.1c0,0.1,0.1,0.1,0.1,0.2
		c0.1,0.1,0.1,0.1,0.2,0.2c0.1,0.2,0.1,0.2,0.2,0.2c0.1,0,0.2,0,0.4,0.1c0.1,0,0.2,0.1,0.3,0.1c0,0,0.1,0,0.1,0
		c0-0.1-0.1-0.1-0.1-0.1c-0.1-0.1-0.2-0.1-0.4-0.2c-0.2-0.1-0.4-0.2-0.5-0.4c-0.1-0.2-0.2-0.3-0.4-0.4c-0.2-0.1-0.3-0.2-0.2-0.5
		c0,0,0,0,0-0.1c-0.1-0.2,0-0.2,0-0.3c0.1-0.2,0-0.4-0.3-0.5c-0.1,0-0.2-0.1-0.3-0.2s-0.1-0.2,0-0.2c0.1,0,0.1-0.1,0.1-0.1
		c0.1,0,0.1-0.1,0-0.2c0,0,0,0,0-0.1c-0.1-0.1,0-0.2-0.1-0.2c0,0,0.1,0,0.1,0c0.1,0,0.1-0.1,0-0.2s-0.1-0.1-0.2-0.1
		c-0.1,0-0.2,0-0.3-0.2c0,0-0.1-0.1-0.1-0.1c0.1,0,0.2,0.1,0.3,0.1c0.1,0,0.2,0,0.3-0.1c0,0,0-0.1,0-0.1c-0.1-0.1-0.1-0.3-0.2-0.4
		c0.2,0,0.3,0,0.5,0c0.2,0,0.3-0.1,0.4-0.2c0,0,0,0,0-0.1c0-0.1,0-0.2,0-0.3c0-0.1,0-0.2-0.2-0.3c0,0-0.1,0-0.1-0.1
		c0-0.2-0.2-0.3-0.4-0.4c0,0,0.1,0,0.1,0c0.2,0.1,0.3,0.1,0.5,0.2c0.1,0,0.2,0,0.3-0.1c0.1-0.2,0.1-0.4,0.2-0.6c0-0.1,0-0.2,0-0.2
		c0-0.2,0-0.2,0.1-0.4c0,0,0-0.1,0.1-0.1c0.1,0,0.1-0.1,0.1-0.2c0-0.2,0-0.3,0.1-0.4c0.1-0.1,0.1-0.2,0.1-0.3c0-0.1,0-0.2-0.1-0.4
		c-0.2-0.3-0.1-0.6,0.1-0.8c0.2-0.2,0.6-0.2,0.8-0.4c0,0,0,0,0.1,0c0.2,0,0.4,0,0.5-0.1c0,0,0.1,0,0.1-0.1c0-0.1,0.1-0.2,0.2-0.2
		c0,0,0.1-0.1,0.1-0.2c0-0.2,0-0.3,0.1-0.4c0.1-0.2,0.1-0.3,0.1-0.5c0-0.1,0-0.2,0-0.2c0.1-0.1,0.1-0.2,0-0.3c0-0.1,0-0.2,0-0.3
		c0-0.2,0-0.3,0-0.4c-0.1-0.2-0.1-0.4-0.1-0.6c0.1-0.3,0.4-0.5,0.5-0.9c0,0,0,0,0,0c0.4-0.4,0.5-0.8,0.5-1.4c0-0.2-0.1-0.4-0.2-0.6
		C372.7,49.5,372.7,49.4,372.5,49.4 M359.1,31.3L359.1,31.3c0.2-0.1,0.3-0.3,0.6-0.3C359.5,31.1,359.3,31.2,359.1,31.3 M359.4,29.5
		L359.4,29.5c0.1,0,0.3,0,0.4,0.1c0.2,0.1,0.2,0.1,0.1,0.4c-0.1,0-0.1,0-0.1-0.1c-0.1-0.1-0.2,0-0.2,0.1c-0.2,0.2-0.3,0.4-0.5,0.7
		c0-0.3,0-0.3-0.2-0.3c0-0.1,0.1-0.1,0.1-0.2c0.2-0.2,0.2-0.3,0-0.4c0,0-0.1,0-0.1-0.1C359,29.7,359.2,29.5,359.4,29.5 M357.3,29.3
		L357.3,29.3c0.4-0.2,0.8-0.6,1.2-0.7c0.1,0,0.3-0.1,0.3,0.1c0.2,0.1,0.1,0.4,0.1,0.6c-0.2-0.1-0.4-0.1-0.6,0c-0.1,0.1-0.3,0-0.4,0
		c-0.1,0-0.1,0-0.2,0c-0.2,0.1-0.4,0.1-0.6,0.2C357.3,29.4,357.3,29.3,357.3,29.3 M357.2,31.2L357.2,31.2c0.1-0.3,0.3-0.6,0.5-0.9
		c0.2-0.3,0.5-0.5,0.8-0.5c0,0.1-0.1,0.2-0.2,0.2c-0.3,0.2-0.6,0.5-0.7,0.9c-0.1,0.2-0.3,0.5-0.5,0.6
		C357.2,31.4,357.2,31.3,357.2,31.2 M360.2,44L360.2,44c-0.1-0.1-0.2-0.1-0.1-0.2C360.2,43.8,360.3,43.9,360.2,44"/>
	<path class="st1" d="M363.3,41C363.3,41,363.3,41.1,363.3,41c0.1,0.1,0.1,0,0.1,0C363.4,41,363.4,41,363.3,41
		C363.3,41,363.3,41,363.3,41"/>
	<path class="st1" d="M363.6,41.8c0.1,0,0-0.1,0-0.1C363.6,41.6,363.5,41.7,363.6,41.8C363.6,41.8,363.6,41.8,363.6,41.8"/>
	<path class="st1" d="M362.6,40.5C362.6,40.5,362.6,40.5,362.6,40.5c0.1,0.1,0.1,0.1,0.1,0C362.7,40.5,362.7,40.4,362.6,40.5
		C362.6,40.4,362.6,40.4,362.6,40.5"/>
	<path class="st1" d="M363.5,41.5C363.6,41.5,363.6,41.4,363.5,41.5c0.1-0.1,0-0.1,0-0.1C363.5,41.4,363.5,41.4,363.5,41.5
		C363.5,41.5,363.5,41.5,363.5,41.5"/>
	<path class="st1" d="M363.6,41.6L363.6,41.6C363.6,41.6,363.6,41.6,363.6,41.6C363.6,41.6,363.6,41.6,363.6,41.6L363.6,41.6
		L363.6,41.6L363.6,41.6z"/>
	<path class="st1" d="M363.7,41.5C363.7,41.5,363.7,41.5,363.7,41.5C363.6,41.5,363.6,41.6,363.7,41.5
		C363.7,41.6,363.8,41.6,363.7,41.5"/>
	<path class="st1" d="M363.5,43C363.5,43,363.5,43,363.5,43c0.1,0,0.1,0,0.1,0C363.6,42.9,363.5,42.9,363.5,43
		C363.5,42.9,363.5,42.9,363.5,43"/>
	<path class="st1" d="M363,41.7C363,41.8,363,41.8,363,41.7c0.1,0,0.1,0,0.1,0C363.1,41.7,363,41.7,363,41.7
		C363,41.7,362.9,41.7,363,41.7"/>
	<path class="st1" d="M363.7,42C363.7,42,363.7,42.1,363.7,42c0.1,0.1,0.1,0.1,0.1,0S363.8,42,363.7,42
		C363.7,41.9,363.7,42,363.7,42"/>
	<path class="st1" d="M363.1,35C363.1,35,363.1,35,363.1,35c-0.1,0-0.1,0-0.1,0S363,35,363.1,35C363.1,35,363.1,35,363.1,35"/>
	<path class="st1" d="M381.9,25c-0.2,0-0.2,0.1-0.2,0.3c0,0.1,0,0.2,0.1,0.2c0.1,0.1,0.1,0.2,0,0.2c0,0-0.1,0.1-0.1,0.1
		c0,0-0.1,0.1,0,0.2c0.1,0.4,0.3,0.5,0.6,0.3c0,0,0,0,0,0c0.1-0.1,0.3-0.2,0.4-0.2c0.1,0,0.2,0,0.2-0.2c0-0.1,0.1-0.2,0.1-0.4
		c0-0.1,0-0.2,0.1-0.3c0.1,0,0.1-0.1,0.1-0.2c0-0.1,0-0.2-0.1-0.2c-0.1-0.2-0.5-0.3-0.7-0.1c0,0-0.1,0.1-0.1,0.1
		C382.2,24.9,382.1,25,381.9,25"/>
	<path class="st1" d="M385.9,31.5C385.9,31.4,385.9,31.5,385.9,31.5c0,0.1,0,0.1,0,0.1C386,31.6,386,31.6,385.9,31.5
		C386,31.5,386,31.5,385.9,31.5"/>
	<path class="st1" d="M392.6,32.8C392.6,32.8,392.6,32.8,392.6,32.8C392.6,32.8,392.6,32.8,392.6,32.8L392.6,32.8z"/>
	<path class="st1" d="M387.7,30.8c0-0.1,0-0.2,0-0.4c0,0,0-0.1-0.1-0.1c-0.2,0-0.3,0.2-0.2,0.4c0,0.1,0.1,0.2,0.1,0.2
		c-0.1,0-0.1,0.1-0.2,0.1c0,0-0.1,0.1-0.1,0.2c0.1,0.2,0.1,0.4,0.1,0.6c0,0.1,0,0.2,0.1,0.2c0.1,0,0.3-0.1,0.3-0.2
		c0-0.2,0-0.5-0.1-0.7C387.7,31,387.6,30.9,387.7,30.8"/>
	<path class="st1" d="M392.8,32.9c0-0.1,0-0.1-0.1-0.1c-0.1,0-0.1,0.1-0.1,0.1c0,0,0.1,0,0.1,0C392.8,32.9,392.8,32.9,392.8,32.9"/>
	<path class="st1" d="M393,33.3C393,33.3,393,33.3,393,33.3c0-0.1,0-0.1,0-0.1C392.9,33.2,392.9,33.2,393,33.3
		C392.9,33.3,392.9,33.3,393,33.3"/>
	<path class="st1" d="M375.6,32.1C375.6,32.1,375.5,32,375.6,32.1c-0.1-0.1-0.1,0-0.1,0S375.5,32.2,375.6,32.1
		C375.5,32.2,375.6,32.1,375.6,32.1"/>
	<path class="st1" d="M385.1,31.9C385.1,31.9,385.1,31.9,385.1,31.9c0,0.1,0,0.1,0,0.1C385.2,32,385.2,31.9,385.1,31.9
		C385.2,31.9,385.2,31.9,385.1,31.9"/>
	<path class="st1" d="M385.7,31.5c-0.1,0-0.2,0.1-0.2,0.2c0,0.1,0.1,0.1,0.1,0.2c0.1,0,0.1-0.1,0.2-0.1
		C385.8,31.6,385.7,31.5,385.7,31.5"/>
	<path class="st1" d="M393.1,33.1C393.1,33.1,393.1,33.1,393.1,33.1c0,0.1,0,0.2,0.1,0.2c0,0,0,0,0,0
		C393.3,33.2,393.2,33.1,393.1,33.1"/>
	<path class="st1" d="M395.8,33.8c-0.1,0-0.3,0.1-0.5,0.1c-0.1,0-0.1,0.1-0.1,0.2s0.1,0.1,0.2,0.1c0.1,0,0.2,0,0.3-0.1
		c0.1-0.1,0.1-0.2,0.1-0.2c0,0,0,0,0-0.1C395.9,33.8,395.8,33.8,395.8,33.8"/>
	<polygon class="st1" points="392.6,32.8 392.6,32.8 392.6,32.8 	"/>
	<path class="st1" d="M392.5,33C392.6,33,392.6,33,392.5,33c0.1,0,0.1,0,0.1,0c0,0,0,0,0-0.1c0,0,0-0.1-0.1-0.1c0,0-0.1-0.1-0.1,0
		C392.4,32.9,392.5,32.9,392.5,33"/>
	<path class="st1" d="M393.1,33.8c-0.1,0-0.3-0.1-0.4-0.1c-0.1,0-0.2,0-0.2,0c0,0-0.1,0-0.1,0c0,0,0,0.1,0.1,0.1
		c0.2,0,0.4,0.1,0.6,0.1c0,0,0.1,0,0.1,0c0,0,0.1,0,0.1-0.1C393.2,33.8,393.2,33.8,393.1,33.8"/>
	<path class="st1" d="M401,53.3C401,53.3,400.9,53.3,401,53.3C400.9,53.4,400.9,53.4,401,53.3C401,53.4,401,53.4,401,53.3
		C401,53.3,401,53.3,401,53.3"/>
	<path class="st1" d="M379.5,50.4C379.4,50.4,379.4,50.4,379.5,50.4c-0.1,0.1,0,0.1,0,0.1C379.5,50.5,379.5,50.5,379.5,50.4
		C379.5,50.4,379.5,50.4,379.5,50.4"/>
	<path class="st1" d="M376.7,41.4C376.7,41.4,376.6,41.4,376.7,41.4C376.7,41.4,376.7,41.5,376.7,41.4
		C376.7,41.4,376.8,41.4,376.7,41.4C376.8,41.4,376.7,41.4,376.7,41.4"/>
	<path class="st1" d="M379.2,18.1c0-0.2,0.1-0.1,0.1-0.2c0.1,0,0.2-0.1,0.2-0.3c0-0.3-0.1-0.4-0.3-0.6c-0.1-0.1-0.2-0.1-0.2-0.2
		c0.2-0.1,0.3-0.1,0.5-0.1c0.1,0,0.2,0,0.3-0.1c0.1-0.2,0.3-0.2,0.4-0.5c0.1-0.3,0.1-0.3,0-0.6c0,0,0-0.1,0-0.1
		c0.1,0,0.2-0.1,0.2-0.1c0.1-0.1,0.1-0.3,0-0.4c0,0,0-0.1-0.1-0.1c0.1-0.3,0.4-0.4,0.5-0.5c0,0,0,0,0.1-0.1c0.2-0.1,0.3-0.2,0.5-0.2
		c0.1,0,0.3-0.1,0.4-0.1c0.1,0,0.2,0,0.1-0.2c0-0.1-0.1-0.1-0.2-0.1c-0.4,0-0.8-0.2-1.2-0.1c0,0-0.1,0-0.1-0.1
		c0-0.1-0.1-0.2-0.2-0.2c-0.7-0.4-1.3-0.4-2-0.3c-0.2,0-0.4,0.1-0.6,0.1c-0.3,0-0.7-0.1-1,0c-0.6,0.2-1.3,0.3-2,0.3
		c-0.1,0-0.2,0-0.3,0c-0.2,0.1-0.5,0.2-0.7,0.2c-0.1,0-0.2,0-0.3,0.1c-0.2,0.1-0.3,0.1-0.5,0.2c-0.2,0.1-0.5,0.2-0.8,0.3
		c-0.1,0-0.2,0-0.2,0.1c0,0-0.1,0.1-0.1,0.1c0,0.2,0,0.2-0.1,0.2c-0.2,0.1-0.4,0.2-0.6,0.2c-0.2,0.1-0.5,0.1-0.8,0.2
		c0,0-0.1,0-0.1,0.1c0,0.2,0.1,0.3,0,0.6c0,0.1,0,0.1,0.1,0.1c0,0,0,0,0,0c0.1,0.1,0.3,0.2,0.5,0.1c0.4-0.1,0.7-0.1,1.1,0
		c0.3,0.1,0.5,0.5,0.4,0.9c0,0.1-0.1,0.3-0.1,0.4c-0.1,0.3-0.1,0.4,0.2,0.4c0,0,0.1,0,0.1,0c0.1,0,0.2,0,0.3,0.1c0,0,0,0.1,0,0.1
		c-0.1,0-0.2,0-0.3,0c-0.1,0-0.2,0.1-0.1,0.2c0,0.1,0.1,0.1,0.1,0.2c0.1,0.2,0.1,0.3-0.1,0.4c0,0,0,0,0,0c-0.2,0.1-0.5,0.3-0.6,0.6
		c-0.1,0.3-0.1,0.6-0.1,1c0,0.1,0,0.1,0,0.2c0,0.3,0,0.6,0,0.9c0.1,0.2,0.2,0.4,0.2,0.6c0,0.2,0.1,0.2,0.3,0.1c0.1-0.1,0.2,0,0.4,0
		c0.1,0,0.1,0.1,0.1,0.2c0.2,0.3,0.4,0.3,0.6,0c0.1-0.2,0.3-0.3,0.4-0.5c0.1-0.1,0.1-0.2,0.1-0.3c0-0.1,0.1-0.2,0.1-0.2
		c0.2-0.1,0.3-0.3,0.4-0.5c0.1-0.2,0.2-0.3,0.2-0.5c0.1-0.1,0.1-0.2,0.3-0.2c0.2,0,0.3,0,0.4-0.2c0,0,0-0.1,0.1,0
		c0.1,0.1,0.2,0.1,0.3,0c0.3-0.1,0.6-0.2,0.9-0.5c0.1-0.1,0.2-0.2,0.3-0.3c0.1-0.1,0.2-0.2,0.4-0.1c0,0,0.1,0,0.1,0
		c0.2-0.1,0.5-0.1,0.7-0.2c0.4-0.1,0.7-0.4,1.1-0.5C379.2,18.2,379.2,18.2,379.2,18.1 M378.8,17.8L378.8,17.8c0-0.1,0-0.2,0.1-0.2
		s0.1,0.1,0.1,0.2C378.9,17.9,378.8,17.9,378.8,17.8"/>
	<path class="st1" d="M375.9,40.9C375.8,40.9,375.8,40.9,375.9,40.9c0,0.1,0,0.1,0,0.1C375.9,41,375.9,41,375.9,40.9
		C375.9,40.9,375.9,40.9,375.9,40.9"/>
	<path class="st1" d="M398.2,51.4C398.2,51.3,398.2,51.3,398.2,51.4c-0.1-0.1-0.1,0-0.1,0S398.1,51.4,398.2,51.4
		C398.1,51.4,398.2,51.4,398.2,51.4"/>
	<path class="st1" d="M376.5,41.7C376.5,41.7,376.4,41.7,376.5,41.7c-0.1,0.1,0,0.2,0,0.2c0,0,0.1,0,0.1-0.1
		C376.6,41.8,376.6,41.7,376.5,41.7"/>
	<path class="st1" d="M376.1,41.8c-0.1,0-0.1,0-0.1,0.1c0,0,0,0.1,0.1,0.1C376.2,42,376.2,42,376.1,41.8
		C376.2,41.9,376.2,41.8,376.1,41.8"/>
	<path class="st1" d="M376.2,41.1C376.2,41.1,376.2,41.1,376.2,41.1c0,0.1,0,0.1,0,0.1C376.2,41.2,376.3,41.2,376.2,41.1
		C376.2,41.1,376.2,41.1,376.2,41.1"/>
	<path class="st1" d="M386.7,46.9C386.7,46.9,386.7,46.9,386.7,46.9C386.8,46.9,386.8,46.9,386.7,46.9
		C386.8,46.9,386.8,46.8,386.7,46.9C386.7,46.8,386.7,46.8,386.7,46.9"/>
	<path class="st1" d="M399.4,51.1c-0.1,0.2-0.3,0.3-0.5,0.5c0,0,0,0,0,0c-0.3,0.3-0.6,0.6-1,0.7c-0.1,0-0.3,0.1-0.3,0.2
		c-0.2,0.2-0.4,0.4-0.4,0.6c0,0.3-0.1,0.5-0.4,0.8c-0.1,0.1-0.2,0.2-0.2,0.2c-0.1,0.1-0.2,0.3-0.2,0.4c0,0.1,0,0.1,0,0.2
		c-0.1,0.4-0.1,0.5,0.2,0.6c0,0,0.1,0,0.2,0c0.1-0.1,0.2-0.1,0.3-0.1c0.1,0,0.2-0.1,0.3-0.2c0.1-0.2,0.3-0.3,0.4-0.4
		c0.2-0.3,0.5-0.7,0.7-1c0.2-0.3,0.5-0.6,0.7-1c0,0,0-0.1,0.1-0.1c0.1-0.1,0.1-0.2,0.2-0.3c0,0,0-0.1,0.1-0.1
		c0.2-0.1,0.2-0.2,0.2-0.3c0.1-0.3,0.1-0.6,0-0.8C399.6,51,399.5,51,399.4,51.1"/>
	<path class="st1" d="M400.2,53.6C400.2,53.6,400.1,53.7,400.2,53.6C400.1,53.7,400.2,53.7,400.2,53.6c0,0.1,0.1,0.1,0.1,0
		C400.3,53.6,400.3,53.6,400.2,53.6"/>
	<path class="st1" d="M397.8,50.9c-0.1,0-0.1,0.1-0.1,0.1c0,0,0,0.1,0,0.1s0.1,0,0.1-0.1C397.8,51,397.8,50.9,397.8,50.9"/>
	<path class="st1" d="M404.5,39c-0.1-0.1-0.2-0.2-0.4-0.2c-0.1,0-0.1,0-0.2-0.1c-0.2-0.2-0.4-0.5-0.4-0.8c0,0,0-0.1,0-0.1
		c-0.1,0-0.1,0-0.1,0c-0.1,0.1-0.1,0.2-0.2,0.2c-0.2,0.3-0.4,0.5-0.8,0.4c-0.1,0-0.1,0-0.2,0c-0.1,0-0.1,0-0.1-0.2
		c0-0.2,0-0.4-0.1-0.5c-0.1,0-0.2,0-0.2-0.2c0,0-0.1,0-0.1,0c0,0-0.1,0-0.1,0c0-0.1-0.2-0.2-0.3-0.3c-0.3-0.2-0.4-0.4-0.5-0.7
		c-0.1-0.1,0-0.2,0.1-0.3c0.1-0.1,0.4-0.1,0.6,0.1c0.1,0.1,0.2,0.3,0.3,0.5c0,0.1,0.1,0.3,0.2,0.3c0.2,0.1,0.3,0.2,0.5,0.3
		c0.4,0.2,0.8,0.4,1.2,0.2c0.1,0,0.2,0,0.2,0.1c0,0.1,0.1,0.1,0.1,0.2c0,0.1,0.1,0.2,0.3,0.2c0.2,0,0.5,0.1,0.7,0.2
		c0.2,0,0.4,0.1,0.5,0.1c-0.3-6.8-3-13-7.3-17.7c0,0-0.1,0-0.1,0.1c0,0.1,0.1,0.2,0.1,0.3c-0.1,0-0.1,0-0.2-0.1
		c-0.1-0.1-0.1-0.1-0.2-0.1c-0.2,0-0.5-0.1-0.7,0c-0.1,0-0.1,0-0.2-0.1c-0.2-0.1-0.3-0.2-0.4-0.1c-0.2,0.1-0.5,0.1-0.7,0.2
		c-0.1,0-0.1,0-0.1,0.1c0,0.2,0,0.2-0.2,0.1c-0.1,0-0.2-0.1-0.2-0.2c0,0,0,0,0,0c0,0,0.2,0,0.1-0.2c-0.1-0.1-0.2-0.2-0.3-0.3
		c0,0,0,0,0,0c-0.2,0-0.3,0-0.5,0c0,0.1,0.1,0.1,0.1,0.2c0,0,0.1,0.1,0.1,0.2c0,0.1,0.1,0.3,0.2,0.4c-0.1,0.1-0.3,0-0.4,0.1
		c-0.1,0.1-0.2,0.1-0.3,0.2s-0.1,0.1,0,0.3c-0.1,0-0.1,0-0.2-0.1c-0.1-0.1-0.2-0.1-0.3-0.2c-0.2-0.1-0.2,0-0.2,0.2c0,0,0,0.1,0,0.1
		c-0.2,0-0.2-0.3-0.4-0.4c-0.1-0.1,0-0.2-0.1-0.3c0.2,0.2,0.5,0.2,0.7,0.2c0.2,0,0.4,0,0.5-0.1c0.1-0.1,0.1-0.4-0.1-0.5
		c-0.1-0.1-0.1-0.1-0.2-0.1c-0.4-0.3-0.8-0.5-1.3-0.7c-0.4-0.1-0.7-0.4-1.1-0.5c0,0-0.1,0-0.1-0.1c0-0.2-0.1-0.2-0.2-0.3
		c-0.5-0.2-1-0.3-1.5-0.4c-0.1,0-0.2,0-0.3,0.1c0,0.1-0.1,0.1-0.2,0.1c-0.1,0-0.1,0-0.2,0c-0.1,0-0.1,0-0.2,0
		c-0.1-0.1-0.2-0.1-0.3,0.1c0,0,0,0.1-0.1,0.1c-0.1,0.1-0.2,0.3-0.4,0.4c0,0,0,0.1-0.1,0.1c-0.1,0.2-0.1,0.4-0.3,0.5
		c-0.1,0-0.2,0.2-0.2,0.4c0,0.3-0.2,0.4-0.3,0.5c-0.1,0.1-0.1,0.2-0.2,0.3c-0.1,0.1-0.3,0-0.4,0.1c0,0,0,0-0.1,0
		c-0.2,0.1-0.4,0.3-0.6,0.4c-0.1,0-0.1,0.1-0.1,0.3c0,0.5,0.2,0.9,0.3,1.4c0,0,0.1,0.1,0.1,0.1c0.2,0.3,0.5,0.2,0.8,0.1
		c0.1-0.1,0.3-0.3,0.5-0.3c0.1,0.3,0.3,0.6,0.5,0.9c0.2,0.3,0.2,0.5-0.1,0.5c0,0,0,0,0,0c-0.2,0-0.2,0.1-0.1,0.3
		c0.1,0.1,0,0.2,0,0.3c0,0.1-0.2-0.1-0.2-0.2c0-0.1-0.1-0.2,0-0.2c0.2-0.2,0-0.5,0.1-0.7c0,0,0-0.1,0-0.2c0-0.1-0.1-0.1-0.2-0.1
		c0,0-0.1,0-0.2,0.1c0,0-0.1,0.1-0.1,0.1c-0.1,0-0.2,0.1-0.2,0.3c0,0.1,0,0.2,0,0.2c0,0.1,0,0.2,0,0.3c0.1,0.1,0.1,0.2,0.1,0.3
		c0.1,0.2,0,0.3-0.1,0.3c-0.1,0-0.2,0-0.2,0.1c0,0,0,0.1-0.1,0c-0.2,0-0.3,0.1-0.5,0.1c-0.1,0-0.2,0.1-0.2,0.2
		c-0.1,0.4-0.4,0.5-0.7,0.7c0,0-0.1,0-0.1,0c0-0.2-0.2-0.1-0.2-0.2c0,0,0.1-0.1,0.1-0.1s0.1-0.1,0.1-0.1c0.1-0.2,0.1-0.3-0.1-0.4
		c0,0,0,0,0,0c-0.2,0-0.3-0.2-0.3-0.5c0-0.1,0-0.2-0.1-0.2c-0.2-0.1-0.2-0.2-0.3-0.5c0-0.1-0.1-0.1-0.1-0.2c-0.2-0.2-0.2-0.2,0-0.4
		c0.1-0.1,0.1-0.1,0-0.2c-0.1-0.2-0.1-0.3-0.3-0.3c-0.1,0-0.1,0-0.2,0c0.1,0,0.1,0,0.1-0.1c0,0,0.1-0.1,0.1-0.2
		c0-0.1-0.1-0.1-0.2-0.1c-0.1,0-0.2,0-0.3,0c-0.1,0-0.1,0-0.2,0.1c-0.1,0.1-0.1,0.3-0.2,0.4c-0.1,0.1-0.1,0.1,0,0.2
		c0.1,0.2,0.2,0.3,0.1,0.5c0,0,0,0.1,0,0.1c0.2,0.2,0.3,0.4,0.5,0.4c0.1,0,0.1,0,0.2,0.1c0,0,0,0.1,0.1,0.1c0.1,0.2,0.1,0.3-0.1,0.3
		c-0.1,0-0.2,0-0.2,0.1c0,0-0.1,0.1,0,0.2c0.1,0.2,0,0.2-0.1,0.2c0,0-0.1,0.1-0.1,0.2c0,0.1,0.1,0.1,0.1,0.1c0.1,0,0.1,0,0.2,0
		c-0.2,0.1-0.4,0.2-0.5,0.4c-0.1,0.1,0,0.2,0.1,0.2c0.1,0,0.3,0,0.4-0.1c0.1-0.1,0.2-0.1,0.3-0.1c0.3,0,0.7,0,1-0.1
		c0,0,0.1-0.1,0.2,0c0,0.2,0,0.3-0.2,0.3c0,0-0.1,0-0.1,0.1c-0.1,0.1-0.2,0.1-0.4,0c-0.1-0.1-0.3,0-0.3,0.2c0,0.2-0.1,0.3-0.2,0.2
		c-0.2-0.1-0.4,0-0.6,0c-0.1,0-0.1,0.1-0.1,0.2c0.1,0.2,0.1,0.3,0.3,0.4c0.3,0,0.7,0.5,0.8,0.9c0,0,0,0.1,0,0.2
		c0,0.2-0.1,0.4-0.1,0.7c0,0.1-0.1,0.1-0.2,0.1c-0.5-0.1-1-0.1-1.5-0.1c0,0-0.1,0-0.1,0c-0.2-0.1-0.3,0-0.5,0.1
		c-0.1,0.1-0.3,0.2-0.2,0.4c0,0,0,0.1,0,0.1c0,0.1,0,0.2,0,0.4c0.1,0.3,0,0.5-0.1,0.8c0,0.1,0,0.1-0.1,0.2c0,0.1-0.1,0.2,0,0.3
		c0.1,0,0,0.1,0,0.2c0,0.5,0,0.5,0.4,0.5c0.2,0,0.4,0,0.5,0.3c0,0.1,0.1,0.1,0.1,0.2c-0.2,0.2-0.2,0.4-0.3,0.6
		c-0.1,0.2-0.2,0.3-0.3,0.3c-0.2,0.1-0.4,0.3-0.6,0.5c0,0,0,0,0,0.1c0,0.1-0.1,0.2-0.1,0.3c0,0.1-0.1,0.2-0.1,0.3
		c0.1,0.3-0.1,0.6-0.3,0.8c-0.2,0.2-0.4,0.3-0.6,0.4c-0.1,0-0.2,0.1-0.2,0.3c0,0.2-0.1,0.3-0.2,0.3c-0.2,0.1-0.3,0.2-0.3,0.5
		c0,0,0,0.1,0,0.2c0,0.1,0,0.2-0.1,0.3c-0.2,0.1-0.4,0.3-0.4,0.6c0,0.1,0,0.1-0.1,0.2c-0.2,0.2-0.2,0.4-0.2,0.7c0,0,0,0.1,0.1,0.1
		c0.1,0,0.1,0.1,0.1,0.2c0,0.2,0,0.5,0.1,0.7c0,0,0,0,0,0c-0.1,0.5-0.1,0.9-0.4,1.3c-0.1,0.1-0.1,0.2,0,0.3c0.1,0.1,0.2,0.3,0.1,0.4
		c0,0,0,0.1,0,0.2c0,0.2,0.1,0.5,0.4,0.6c0,0,0.1,0.1,0.1,0.1c0.2,0.2,0.3,0.4,0.5,0.5c0.1,0.1,0.2,0.3,0.2,0.5
		c0,0.2,0.1,0.5,0.4,0.5c0.1,0,0.2,0.1,0.2,0.2c0,0.1,0.1,0.2,0.2,0.2c0.2,0,0.3,0.2,0.4,0.3c0.1,0.1,0.3,0.2,0.4,0.3
		c0.1,0.1,0.2,0.1,0.4,0c0.1,0,0.2-0.1,0.4-0.1c0.3-0.1,0.6-0.2,0.9-0.1c0.1,0,0.3,0,0.4,0.1c0,0,0.1,0,0.2,0
		c0.3-0.1,0.6-0.2,0.9-0.4c0.3-0.1,0.5-0.2,0.8-0.2c0.4,0,0.6,0.1,0.7,0.5c0,0.2,0.2,0.3,0.4,0.3c0.2,0,0.3,0,0.5,0
		c0.1,0,0.3-0.1,0.3,0.1c0,0,0,0,0.1,0c0.1,0,0.2,0.1,0.2,0.2c0,0.2,0,0.3-0.1,0.5c0,0.1-0.1,0.2-0.1,0.3c0,0.2,0,0.4-0.2,0.6
		c0,0.1,0,0.1,0,0.2c0.1,0.2,0.1,0.3,0.2,0.5c0.2,0.2,0.3,0.4,0.5,0.7c0.1,0.1,0.1,0.2,0.1,0.3c0,0.2,0.1,0.4,0.1,0.6
		c0.1,0.2,0.2,0.4,0,0.7c0,0.1,0,0.1,0,0.2c0,0.1,0.1,0.2,0.1,0.3c0.1,0.3,0,0.5-0.2,0.8c-0.1,0.1-0.2,0.2-0.2,0.3
		c-0.1,0.4-0.4,0.8-0.5,1.2c0,0.2-0.1,0.4,0,0.5c0.1,0.1,0.1,0.2,0.1,0.3c0.1,0.3,0.2,0.6,0.3,0.8c0,0.1,0.1,0.1,0,0.2
		c0,0.2-0.1,0.3-0.1,0.5c0,0.3,0,0.5,0,0.8s0,0.5,0.2,0.6c0.1,0.1,0.1,0.1,0.1,0.2c0,0,0,0.1,0,0.1c0,0.2,0,0.4,0.1,0.6
		c0.1,0.1,0,0.2-0.1,0.3c0,0-0.1,0.1-0.1,0.2c0,0.1,0.1,0.2,0,0.3c0,0,0,0,0,0c0.1,0,0.2,0.1,0.4,0.1s0.3-0.2,0.5-0.1c0,0,0,0,0,0
		c0.1-0.1,0.2-0.1,0.3-0.1c0.2,0,0.4,0,0.7-0.1c0.1,0,0.2-0.1,0.4-0.2c0.1,0,0.2-0.1,0.3-0.1c0.2-0.1,0.4-0.2,0.5-0.4
		c0.1-0.1,0.2-0.2,0.2-0.2c0.2-0.1,0.3-0.3,0.4-0.4c0.2-0.2,0.4-0.4,0.6-0.5c0.1,0,0.1-0.1,0.2-0.2c0.1-0.1,0.2-0.3,0.2-0.4
		c0.1-0.1,0.1-0.2,0.1-0.3c0-0.2,0.1-0.2,0.3-0.3c0.2,0,0.4-0.1,0.5-0.3c0.2-0.3,0.4-0.6,0.4-0.9c0-0.1,0-0.3,0-0.4
		c0,0,0-0.1,0.1-0.1c0.3-0.3,0.6-0.4,0.9-0.7c0,0,0.1,0,0.2-0.1c0.2-0.1,0.5-0.2,0.6-0.4c0.3-0.2,0.6-0.5,0.7-0.8
		c0.1-0.2,0.1-0.4,0.1-0.6c0-0.2,0-0.3,0.1-0.5c0.1-0.2,0.1-0.3,0-0.4c-0.1-0.1-0.1-0.2-0.1-0.3c0-0.2,0.1-0.3,0.1-0.5
		c0,0,0-0.1,0.1-0.1c0.1-0.1,0.1-0.2,0-0.2c-0.1-0.1-0.1-0.2,0-0.3c0-0.1,0.1-0.1,0.1-0.2c0.2-0.2,0.3-0.4,0.4-0.6
		c0.1-0.2,0.3-0.4,0.5-0.5c0,0,0.1,0,0.1-0.1c0.2-0.3,0.5-0.5,0.7-0.8c0.2-0.2,0.3-0.3,0.5-0.4c0.6-0.2,1-0.7,1.4-1.2
		c0.3-0.4,0.6-0.9,0.9-1.3c0-0.1,0.1-0.1,0.2-0.2c0.1-0.2,0.1-0.5,0.1-0.8c0-0.1-0.1-0.2-0.2-0.1c-0.3,0.2-0.7,0.3-1,0.2
		c-0.1,0-0.1,0-0.2,0.1c-0.1,0.1-0.2,0.1-0.3,0.1c-0.1,0-0.2,0-0.3,0c-0.1,0.1-0.3,0.1-0.4,0c0,0-0.1-0.1-0.1-0.1
		c-0.1,0-0.1-0.1-0.1-0.2c0-0.1,0-0.2-0.1-0.3c0.1,0,0.1,0,0.2,0c0.2,0.1,0.4,0,0.6-0.1c0.1-0.1,0.1,0,0.2,0c0.1,0,0.3,0,0.4-0.1
		c0.1-0.1,0.2-0.1,0.3-0.1c0.1,0,0.2,0,0.3-0.2c0.1-0.1,0.1-0.1,0.2-0.1c0.2,0,0.4,0,0.5-0.1c0.2-0.1,0.4-0.2,0.3-0.4
		c0-0.1,0-0.1,0.1-0.1c0.2-0.1,0.4-0.2,0.6-0.2c0.1,0,0.3,0,0.3-0.2c0-0.1,0.1-0.1,0.2-0.1c0.1,0,0.2,0,0.3-0.2
		c0-0.1,0.1-0.1,0.2-0.2c0.1,0,0.2-0.1,0.2-0.2c0-0.2,0-0.3,0.2-0.4c0.1-0.2,0.3-0.3,0.3-0.6c0-0.1,0-0.1,0-0.2
		C404.7,39.2,404.6,39.1,404.5,39 M393.5,30.5L393.5,30.5c0.1-0.1,0.1-0.2,0.1-0.3c0-0.1,0-0.2,0.1-0.2c0,0,0.1,0,0.1-0.1
		c0-0.2,0.1-0.3,0.2-0.5c0-0.1,0.1-0.1,0.2-0.1c0.1,0,0.1,0,0.2,0.1c0,0,0,0.1,0.1,0.1c0.1,0,0.2,0,0.2,0.2c0,0,0,0.1,0,0.1
		c0.2,0.1,0.2,0.3,0.4,0.4c0.1,0.1,0.1,0,0.2-0.1c0,0,0,0,0.1-0.1c0.1-0.1,0.1-0.2,0.2-0.1c0,0,0.1,0.1,0.1,0.1c0.1,0,0.2,0,0.3-0.1
		c0,0,0,0,0,0c0-0.1,0-0.1,0-0.2c-0.1,0-0.3-0.1-0.4-0.1c-0.1,0-0.2-0.1-0.2-0.2c0.1-0.1,0.1-0.1,0.2-0.1c0.1,0,0.3,0,0.4-0.1
		c0.1,0,0.2,0.1,0.2,0.2c0,0.1-0.1,0.2-0.1,0.3c0,0-0.1,0-0.1,0c0,0,0,0.1,0.1,0.1c0,0,0,0-0.1,0c0,0,0,0,0,0.1c0,0,0.1,0,0.1,0.1
		c0.3,0.2,0.6,0.4,0.9,0.6c0.2,0.2,0.4,0.3,0.6,0.5c0.2,0.2,0.2,0.3,0,0.4c-0.1,0.1-0.3,0.1-0.5,0c-0.2-0.1-0.3-0.1-0.5-0.1
		c-0.3-0.1-0.5-0.3-0.8-0.4c0,0-0.1-0.1-0.1,0c-0.4,0-0.7,0.1-1,0.3c-0.1,0-0.1,0-0.2,0c-0.1,0-0.2-0.1-0.4,0c0,0-0.1,0-0.1,0
		c-0.1-0.1-0.3-0.2-0.4-0.4C393.4,30.8,393.4,30.7,393.5,30.5 M393.2,31.6L393.2,31.6c0.1-0.1,0.2-0.1,0.3-0.2c0.1,0,0.2,0,0.3,0.1
		c0,0,0.1,0,0.1,0.1c0,0-0.1,0-0.1,0c-0.1,0.1-0.2,0.1-0.3,0.1c0,0,0,0,0,0C393.4,31.8,393.3,31.7,393.2,31.6
		C393.1,31.7,393.1,31.7,393.2,31.6C393.1,31.6,393.1,31.6,393.2,31.6 M388.1,24.9L388.1,24.9c0.1,0.2,0.2,0.2,0.3,0.2
		c0.1,0,0.2,0,0.2-0.2c0-0.1,0.1-0.1,0.2-0.1c0.1,0,0.2,0,0.2-0.2c0-0.2,0.1-0.4,0-0.6c0-0.1,0-0.2,0.1-0.3c0.1,0,0.2-0.2,0.3-0.3
		c0.1-0.2,0-0.2-0.1-0.4c-0.1-0.1-0.1-0.2-0.2-0.2c-0.2-0.1-0.2-0.3-0.2-0.4c0-0.2,0-0.4,0.1-0.5c0.2-0.1,0.5-0.2,0.7-0.5
		c0,0,0.1-0.1,0.1-0.1c0-0.1-0.1-0.1,0-0.2c0.1-0.1,0.1-0.1,0.2-0.1c0.1,0,0.3,0,0.4,0.1c0.1,0,0.1,0.1,0.1,0.2
		c-0.1,0.2-0.3,0.4-0.4,0.5c-0.2,0.1-0.3,0.3-0.2,0.6c0,0,0,0,0,0c0.1,0.2,0.2,0.5,0.3,0.7c0.1,0.2,0.3,0.3,0.5,0.4
		c0.3,0.1,0.5,0,0.7-0.1c0.2,0,0.3,0,0.5,0c0,0,0.1,0,0.2,0.1c0,0,0.1,0.1,0,0.1c-0.1,0.1-0.2,0.3-0.4,0.2c-0.1,0-0.2-0.1-0.3-0.1
		c-0.2-0.1-0.3,0-0.4,0c-0.1,0-0.1,0.3,0,0.5c0,0,0.1,0.1,0.1,0.1c0,0.1,0,0.2,0,0.3c-0.1,0-0.1-0.1-0.2-0.1
		c-0.3-0.2-0.5-0.1-0.5,0.2c0,0.2,0,0.4,0,0.5c0,0.1-0.3,0.5-0.4,0.4c-0.2-0.2-0.3-0.1-0.5-0.1c-0.2,0-0.3,0.1-0.5,0.1
		c0,0-0.1,0-0.2,0c-0.1,0.1-0.3,0-0.4-0.1c-0.2-0.2-0.2-0.2-0.4-0.1C388.1,25.1,388.1,25,388.1,24.9 M395.5,47.6L395.5,47.6
		c-0.1,0.1-0.2,0.2-0.3,0.3c0,0.1-0.1,0.1-0.1,0.1c-0.1,0-0.2,0-0.3,0c0-0.2,0-0.3,0.1-0.4c0.1-0.3,0.4-0.5,0.7-0.3
		c0.1,0,0.1,0,0.2,0.1C395.6,47.5,395.6,47.5,395.5,47.6 M395.7,35.6L395.7,35.6c-0.2,0-0.3,0-0.5-0.1c-0.2-0.2-0.5-0.2-0.7,0
		c-0.1,0.1-0.3,0.1-0.4,0c-0.3-0.1-0.6-0.2-0.9-0.3c-0.1,0-0.2,0-0.3-0.1c-0.1-0.1-0.2-0.1-0.4-0.1c-0.1,0-0.1,0-0.2-0.1
		c-0.2-0.2-0.4-0.3-0.7-0.2c-0.2,0-0.4,0.1-0.5,0.3c0,0.1-0.1,0.1,0,0.2c0.1,0.1,0.1,0.2,0,0.3c-0.1,0.1-0.3,0.1-0.4,0
		c-0.2-0.2-0.5-0.3-0.8-0.3c-0.1,0-0.1-0.1-0.2-0.2c-0.1-0.4-0.4-0.5-0.7-0.5c-0.4,0-0.7-0.1-1-0.4c-0.1-0.1-0.1-0.1-0.1-0.3
		c0-0.1,0.1-0.1,0.1-0.2c0-0.1,0.1-0.2,0.1-0.2c-0.1-0.2-0.1-0.3,0-0.5c0-0.1,0-0.2-0.1-0.2c-0.1,0-0.2,0-0.3-0.1c0,0-0.1,0-0.2,0
		c-0.2,0.1-0.5,0.1-0.7,0.1c-0.2,0-0.3,0-0.4,0.1c-0.1,0-0.1,0-0.2,0c-0.2-0.1-0.3-0.1-0.5,0c-0.3,0.1-0.6,0.2-0.9,0.1
		c-0.1,0-0.3,0.1-0.4,0.2c-0.1,0.1-0.1,0.1-0.2,0.1c-0.1,0-0.1,0.1-0.2,0.1c-0.1,0.1-0.3,0.2-0.4,0.1c-0.1-0.1-0.3,0-0.4,0
		c-0.2,0-0.3,0-0.4-0.2c0,0,0,0-0.1-0.1c0.3,0,0.6-0.2,0.9-0.2c0.1,0,0.3,0,0.4-0.2c0-0.1,0.1-0.1,0.2-0.2c0.1-0.1,0.2-0.1,0.2-0.3
		c0-0.1,0.1-0.2,0.1-0.2c0.1-0.1,0.1-0.1,0-0.2c-0.1-0.1,0-0.2,0-0.3s0.1-0.2,0.2-0.3c0.1-0.1,0.2-0.2,0.3-0.3s0.3-0.2,0.5-0.3
		c0.1-0.1,0-0.2,0-0.3c0-0.3,0.1-0.4,0.3-0.4c0.2,0,0.3,0,0.5,0.1c0.2,0.1,0.3,0.1,0.4-0.1c0-0.1,0.1-0.1,0.2-0.1
		c0.1,0,0.1-0.1,0.2-0.1c0.1-0.1,0.2-0.1,0.3,0c0.1,0.1,0.2,0.2,0.3,0.3c0.2,0.4,0.5,0.8,1,0.9c0.1,0,0.1,0.1,0.2,0.1
		c0.2,0.1,0.4,0.4,0.6,0.5c0.1,0.1,0.2,0.5,0.1,0.6c-0.1,0.1-0.3,0.1-0.4,0.1c-0.1,0-0.2,0-0.4,0c-0.1,0-0.1,0-0.2,0
		c-0.1,0-0.1,0.2,0,0.2c0,0,0.1,0.1,0.1,0.1c0.2,0.1,0.3,0.2,0.5,0.3c0.2,0.1,0.3,0.1,0.3-0.2c0-0.1,0-0.1,0-0.2c0-0.1,0-0.2,0-0.3
		c0,0.1,0,0.1,0,0.2c0,0,0.1,0.1,0.1,0.1c0,0,0,0,0,0c0.2-0.1,0.4-0.4,0.3-0.7c0,0,0-0.1,0-0.1c0-0.1,0-0.2,0.1-0.1
		c0.1,0,0.1,0,0.2,0.1c0,0.1,0.1,0.1,0.2,0c0.1-0.1,0.1-0.2,0-0.2c-0.1-0.1-0.3-0.2-0.4-0.3c-0.1,0-0.1-0.1-0.2-0.1c0,0-0.1,0-0.1,0
		c-0.1-0.3-0.4-0.3-0.5-0.4c-0.1-0.1-0.3-0.2-0.3-0.4c0-0.2-0.2-0.2-0.3-0.4c-0.1-0.1-0.2-0.2-0.1-0.4c0-0.1,0.2-0.1,0.3-0.1
		c0,0,0,0,0,0c0.1,0.2,0.4,0.3,0.5,0.6c0.1,0.2,0.2,0.3,0.4,0.3c0,0,0.1,0,0.1,0.1c0.2,0.2,0.4,0.3,0.5,0.5s0.2,0.4,0.3,0.6
		c0,0.2,0,0.3,0.1,0.4c0.1,0.1,0.1,0.2,0.2,0.3c0.1,0.1,0.1,0.2,0.2,0.3c0.2,0.2,0.3,0.3,0.3,0.6c0,0.2,0.1,0.2,0.2,0.2
		c0.1,0,0.1,0,0.2,0c0.1,0,0.2,0,0.2-0.1c0,0,0-0.1,0-0.2c0-0.1-0.1-0.2,0.1-0.2c0.1,0,0.2-0.2,0-0.3c-0.1-0.2-0.1-0.4-0.2-0.6
		c0,0,0-0.1,0.1-0.1c0.1,0,0.2,0,0.2-0.1c0-0.1,0.1,0,0.2,0c0.2,0,0.3,0.1,0.5,0.1c0,0,0,0,0,0c-0.1,0.1-0.1,0.3,0,0.4
		c0.1,0.1,0.1,0.2,0.1,0.3c0,0,0,0.1,0,0.1c-0.1,0.2-0.1,0.2,0.1,0.3c0.2,0.1,0.2,0.2,0.2,0.4c0,0.1,0.1,0.2,0.2,0.2
		c0.2,0,0.4,0.1,0.6,0.2c0.2,0.1,0.3,0.1,0.4,0c0-0.1,0.1-0.1,0.2,0c0.1,0,0.2,0.1,0.3,0.2c0.2,0.2,0.4,0.2,0.6,0.1
		c0.1-0.1,0.2-0.1,0.4,0c0.1,0,0.1,0,0.2,0c0,0.2,0,0.5,0,0.7c0,0,0,0.1,0,0.2c-0.1,0.3-0.2,0.6-0.2,0.9
		C396,35.5,396,35.6,395.7,35.6 M399.1,42.6L399.1,42.6c-0.2-0.2-0.3-0.3-0.5-0.5c0-0.1-0.1-0.2-0.2-0.2c-0.2-0.1-0.4-0.2-0.5-0.3
		c0-0.1-0.1-0.1-0.1-0.2c0-0.2-0.1-0.4-0.1-0.5c0-0.1-0.1-0.1-0.1-0.1c-0.2-0.1-0.3-0.2-0.3-0.5c0-0.3-0.1-0.6-0.2-0.9
		c-0.1-0.2-0.2-0.3-0.3-0.4c-0.1-0.1-0.1-0.1-0.2-0.2c-0.2-0.5-0.3-0.9-0.6-1.3c-0.1-0.1-0.1-0.2-0.1-0.4c0.1,0,0.2,0.2,0.3,0
		c0,0,0,0,0,0c0.1,0,0.2,0.1,0.2,0.2c0.1,0.2,0.3,0.4,0.4,0.6c0,0,0,0,0,0c0.1,0.2,0.2,0.4,0.3,0.5c0.1,0.2,0.3,0.3,0.4,0.5
		c0.1,0.2,0.2,0.3,0.2,0.5c0,0.3,0.1,0.6,0.4,0.8c0.2,0.1,0.4,0.3,0.4,0.6c0,0.1,0.1,0.2,0.2,0.3c0.2,0.2,0.3,0.4,0.2,0.6
		c0,0.2,0.1,0.4,0.1,0.5C399.2,42.2,399.2,42.4,399.1,42.6 M400.6,33.4L400.6,33.4c-0.1,0-0.3-0.3-0.2-0.4c0-0.1,0.1-0.2,0-0.3
		c0-0.1,0-0.1,0.1-0.1c0.1-0.1,0.1-0.2,0-0.2c-0.1-0.1-0.2-0.2-0.3-0.3c-0.2-0.2-0.4-0.5-0.6-0.7c0,0-0.1-0.1-0.1-0.1
		c0-0.2-0.2-0.4-0.4-0.5c0-0.1,0.1-0.2,0.1-0.3c0,0,0-0.1,0-0.1c0.2,0,0.4-0.3,0.6-0.4c0.1-0.1,0.2-0.1,0.4,0c0.1,0.1,0.2,0.1,0.3,0
		c0.1,0,0.2,0,0.2,0.2c0,0.1,0,0.2,0.1,0.3c-0.1,0-0.2,0-0.3,0c-0.1,0-0.3,0-0.3,0.2c0,0.1-0.1,0.1-0.1,0.1c-0.1,0-0.1,0.1,0,0.2
		c0,0.1,0.1,0.1,0.2,0.1c0.1,0,0.1,0.1,0.2,0.1c0.1,0.1,0.2,0.3,0.4,0.4c0.1,0,0.1,0.1,0.1,0.2c0.1,0.3,0.1,0.3,0.3,0.3
		c0.1,0,0.2,0,0.2,0.1c0,0.1,0.1,0.2,0.2,0.2c-0.1,0-0.1,0-0.2,0c-0.1,0-0.2,0-0.2,0.1c0,0.1,0,0.3,0.1,0.3c0.2,0.1,0.2,0.3,0.4,0.4
		c0,0,0.1,0.1,0.1,0.2c0,0.1,0,0.3,0.1,0.4c0,0.1,0,0.1,0,0.2c-0.2,0.1-0.5,0.1-0.7,0c-0.1,0-0.2-0.1-0.2-0.2
		C400.9,33.5,400.8,33.4,400.6,33.4 M401.6,38L401.6,38C401.6,38,401.6,38,401.6,38c-0.1-0.1,0-0.1,0-0.1
		C401.7,37.9,401.7,37.9,401.6,38C401.7,38,401.7,38,401.6,38"/>
	<path class="st1" d="M377.4,68.4c-3.9,0-7.9-0.8-11.6-2.4c-1.2-0.5-2.4-1.2-3.5-1.9c-1.9-1.2-3.7-2.6-5.2-4.2
		c-3.9-3.9-6.6-8.8-7.8-14.2l0-0.2c0-0.2-0.1-0.5-0.1-0.7c-1.1-6.2-0.2-12.8,2.7-18.4l0.1-0.2c0.3-0.5,0.6-1,0.9-1.5
		c0.2-0.4,0.5-0.8,0.8-1.2c0.3-0.5,0.7-0.9,1-1.4c0.5-0.7,1.2-1.4,1.9-2.2c0.2-0.2,0.4-0.4,0.5-0.6c0.1-0.1,0.1-0.1,0.2-0.2
		c0.3-0.3,0.6-0.6,1-0.9c0.6-0.5,1.2-1,1.8-1.5c0.6-0.5,1.3-0.9,1.9-1.4c1.5-0.9,3-1.7,4.6-2.4c8.3-3.3,17.8-2.6,25.5,1.9
		c0.5,0.3,0.9,0.6,1.4,0.9c1.5,1,3,2.2,4.3,3.5c0.8,0.8,1.6,1.7,2.4,2.7l0.5,0.7c1,1.4,1.9,2.9,2.7,4.5l0,0c3.4,7.1,3.8,15.4,1,22.8
		c-1.5,3.8-3.6,7.2-6.5,10.1c-0.3,0.3-0.6,0.6-1,0.9c-1.5,1.4-3.2,2.6-5,3.6C387.4,67.1,382.4,68.4,377.4,68.4 M377.4,12.4
		c-3.5,0-6.9,0.6-10.2,2c-1.5,0.6-2.9,1.4-4.4,2.2c-0.6,0.4-1.2,0.8-1.8,1.3c-0.6,0.5-1.2,0.9-1.7,1.4c-0.3,0.3-0.6,0.6-0.9,0.9
		l-0.2,0.2c-0.2,0.2-0.3,0.3-0.5,0.5c-0.7,0.8-1.3,1.5-1.8,2.1c-0.4,0.4-0.7,0.9-1,1.3c-0.3,0.4-0.5,0.8-0.8,1.2
		c-0.3,0.5-0.6,0.9-0.8,1.4l-0.1,0.2c-2.7,5.3-3.6,11.5-2.6,17.4c0,0.2,0.1,0.5,0.1,0.7l0,0.2c1.1,5.1,3.6,9.8,7.4,13.5
		c1.5,1.5,3.1,2.8,5,3.9c1.1,0.7,2.2,1.2,3.4,1.8c7.9,3.5,17.1,3,24.6-1.4c1.7-1,3.3-2.1,4.7-3.5c0.3-0.3,0.6-0.6,0.9-0.9
		c2.7-2.7,4.8-6,6.2-9.6c2.7-7,2.3-14.8-0.9-21.6c-0.7-1.5-1.6-2.9-2.5-4.2l-0.5-0.6c-0.7-0.9-1.4-1.7-2.2-2.5
		c-1.2-1.2-2.6-2.4-4.1-3.3c-0.4-0.3-0.9-0.6-1.3-0.8C387,13.7,382.2,12.4,377.4,12.4"/>
</g>
<path class="st2" d="M79,29.8c-0.2-0.2-0.4-0.5-0.6-0.7c-7.3,2.9-11.3,4.4-18.6,7.3l0,0.9C67.3,34.4,71.5,32.7,79,29.8"/>
<path class="st3" d="M54,31.7c0.2-0.3,0.3-0.6,0.5-0.9c3.7-1.5,7.3-2.9,11-4.3c0.3,0.1,0.6,0.2,0.8,0.4C62.2,28.5,58.1,30.1,54,31.7
	"/>
<path class="st2" d="M73.8,25.6c-0.3-0.1-0.7-0.2-1.1-0.4c-3.9,1.5-7.9,3.1-11.8,4.6l-0.1,0.8C65.3,28.9,69.4,27.3,73.8,25.6"/>
<path class="st3" d="M54.7,47.9c-0.2-0.2-0.3-0.5-0.5-0.7c7.1-2.8,14.2-5.6,21.3-8.4c0.1,0.3,0.1,0.6,0.2,0.9
	C68.7,42.4,61.7,45.1,54.7,47.9"/>
<path class="st3" d="M57.4,50.9c-0.2-0.2-0.5-0.4-0.7-0.6c3.4-1.3,11.4-4.5,14.8-5.8c0.1,0.2,0.2,0.5,0.3,0.8
	C68.5,46.5,60.6,49.6,57.4,50.9"/>
<path class="st3" d="M61.6,53.1c-0.3-0.1-0.6-0.3-0.9-0.4c4.9-1.9,9.8-3.8,14.6-5.8c-0.1,0.3-0.2,0.6-0.3,0.9
	C70.6,49.5,66.1,51.3,61.6,53.1"/>
<path class="st3" d="M66.1,54.6c-0.4-0.1-0.7-0.1-1.1-0.2c1.5-0.6,5.2-2,6.7-2.6c0.1,0.2,0.3,0.3,0.4,0.5
	C70.9,52.7,67.3,54.1,66.1,54.6"/>
<path class="st3" d="M63.6,54c-0.3-0.1-0.7-0.2-1-0.3c4.5-1.8,8.9-3.5,13.3-5.2c-0.2,0.3-0.3,0.6-0.5,0.9
	C71.4,50.9,67.5,52.5,63.6,54"/>
<path class="st3" d="M55.4,29.5c0.2-0.3,0.4-0.6,0.7-0.9c2.1-0.8,4.3-1.7,6.4-2.5c0.2,0.1,0.3,0.3,0.6,0.4
	C60.5,27.5,57.9,28.5,55.4,29.5"/>
<path class="st3" d="M52.4,36c0.1-0.3,0.2-0.6,0.2-0.9c2.9-1.1,10.4-4.1,13.3-5.2c0.1,0.2,0.2,0.5,0.3,0.7
	C63.1,31.8,55.5,34.8,52.4,36"/>
<path class="st3" d="M52.4,42.4c-0.1-0.3-0.1-0.6-0.2-0.9c7.7-3,12-4.7,19.7-7.8c0.2,0.2,0.3,0.5,0.5,0.7
	C64.7,37.6,60.2,39.3,52.4,42.4"/>
<path class="st3" d="M52.9,44.3c-0.1-0.2-0.2-0.5-0.2-0.8c7.7-3,12.2-4.8,19.9-7.8c0.2,0.2,0.3,0.5,0.5,0.7
	C65.2,39.4,60.7,41.2,52.9,44.3"/>
<path class="st2" d="M71.7,24.7c-0.3-0.1-0.7-0.2-1-0.3c-3.9,1.5-7.9,3.1-11.8,4.6l0,0.7C63.3,28,67.3,26.5,71.7,24.7"/>
<path class="st2" d="M71.5,51.8l0.6,0.4c2.1-0.8,4.2-1.6,6.2-2.5c0.2-0.3,0.4-0.6,0.7-0.9C76.5,49.9,74,50.9,71.5,51.8"/>
<path class="st2" d="M68.3,51.5l0.6,0.4c0,0,0.1,0,0.1,0c3.7-1.5,7.4-2.9,11.1-4.3c0.2-0.3,0.3-0.6,0.5-0.9
	C76.4,48.3,72.3,49.9,68.3,51.5"/>
<path class="st2" d="M65.7,41.4C65.7,41.4,65.7,41.4,65.7,41.4c3.8-1.5,12.3-4.8,16.1-6.3c-0.1-0.3-0.2-0.5-0.3-0.8
	c-3.7,1.5-12.2,4.8-16.1,6.3L65.7,41.4z"/>
<path class="st2" d="M80.2,31.5c-0.2-0.2-0.3-0.5-0.5-0.7c-6.9,2.7-13.8,5.4-20.8,8.2l0.1,0.9C59,39.8,73.1,34.3,80.2,31.5"/>
<path class="st2" d="M75.8,26.8c-0.3-0.2-0.5-0.4-0.8-0.5c-4.8,1.9-9.5,3.7-14.3,5.6l0,0.9C65.7,30.7,70.7,28.8,75.8,26.8"/>
<path class="st3" d="M59.3,52c-0.3-0.1-0.6-0.3-0.8-0.5c3.4-1.3,11.5-4.6,14.9-5.9c0.1,0.2,0.2,0.5,0.3,0.7
	C70.5,47.6,62.6,50.7,59.3,52"/>
<path class="st3" d="M52.4,36c0.1-0.3,0.2-0.6,0.2-0.9c2.9-1.1,10.4-4.1,13.3-5.2c0.1,0.2,0.2,0.5,0.3,0.7
	C63.1,31.8,55.5,34.8,52.4,36"/>
<path class="st3" d="M52,38.2c0.1-0.3,0.2-0.6,0.2-0.9c2.9-1.1,10.4-4.1,13.3-5.2c0.1,0.2,0.2,0.5,0.3,0.7C62.7,34,55.1,37,52,38.2"
	/>
<path class="st3" d="M53.1,33.7c0.1-0.3,0.2-0.6,0.4-0.9c5-2,10-3.9,15-5.9c0.3,0.1,0.6,0.3,0.9,0.4C64,29.5,58.5,31.6,53.1,33.7"/>
<path class="st3" d="M59.8,37.3l0-0.9c-2.6,1-5.3,2.1-7.9,3.1c0,0.3,0,0.6,0.1,0.9C58.9,37.7,59.4,37.5,59.8,37.3"/>
<path class="st2" d="M62.6,44.8c7.5-3,11.9-4.6,19.5-7.6c0-0.3-0.1-0.6-0.2-0.9c-7.8,3.1-12.2,4.8-20,7.9L62.6,44.8z"/>
<path class="st2" d="M62.8,46.7c7.5-3,11.9-4.6,19.5-7.6c0-0.4-0.1-0.7-0.1-0.9c-7.8,3.1-12.2,4.8-20,7.9L62.8,46.7z"/>
<path class="st2" d="M81.1,33.2c-0.1-0.3-0.2-0.5-0.4-0.8c-6.2,2.4-12.4,4.9-18.6,7.3l0.1,0.9C68.5,38.1,74.7,35.7,81.1,33.2"/>
<path class="st2" d="M62.7,34c3.4-1.3,11.4-4.5,14.8-5.8c-0.2-0.2-0.5-0.4-0.7-0.6c-3.2,1.2-10.6,4.2-14.1,5.6L62.7,34
	C62.7,34,62.7,34,62.7,34"/>
<path class="st2" d="M75.8,26.8c-0.3-0.2-0.5-0.4-0.8-0.5c-4.8,1.9-9.5,3.7-14.3,5.6l0,0.9C65.7,30.7,70.7,28.8,75.8,26.8"/>
<path class="st3" d="M53.6,46.1c-0.1-0.3-0.2-0.5-0.4-0.8c6.4-2.5,12.7-5,19.1-7.5c0.1,0.3,0.2,0.5,0.3,0.8
	C66.3,41.1,59.9,43.6,53.6,46.1"/>
<path class="st3" d="M55.8,49.4c-0.2-0.2-0.4-0.4-0.6-0.7c7.5-3,11.7-4.6,19.2-7.6c0,0.3,0,0.6,0,0.9C67.1,45,63.1,46.5,55.8,49.4"
	/>
<path class="st3" d="M62.3,26.7l0-0.7c-2,0.8-4.3,1.7-6.3,2.5c-0.2,0.3-0.5,0.6-0.7,0.9c2.5-1,5.1-2,7.6-3
	C63,26.5,62.5,26.7,62.3,26.7"/>
<path class="st2" d="M69.2,24c-0.4-0.1-0.7-0.1-1.1-0.2c-1.2,0.5-4.5,1.8-5.8,2.3l0,0.7C63.9,26.1,67.7,24.6,69.2,24"/>
<path class="st2" d="M71.7,24.7c-0.3-0.1-0.7-0.2-1-0.3c-3.9,1.5-7.9,3.1-11.8,4.6l0,0.7C63.2,28.1,67.3,26.5,71.7,24.7"/>
<path class="st2" d="M68.1,47.7l0.7,0.6c3.2-1.2,10.1-4,12.8-5c0.1-0.3,0.2-0.6,0.2-0.9C78.8,43.5,71.1,46.5,68.1,47.7"/>
<path class="st2" d="M65.2,50.9l0.6,0.5c0,0,0,0,0,0c5-2,10-3.9,15-5.9c0.1-0.3,0.3-0.6,0.4-0.9C75.9,46.7,70.6,48.8,65.2,50.9"/>
<path class="st2" d="M66,47.5c5.3-2.1,10.7-4.2,16-6.3c0-0.3,0.1-0.6,0.1-0.9c-5.6,2.2-11.2,4.4-16.8,6.6L66,47.5z"/>
</svg>
